<svg width="32" height="32" viewBox="0 0 32 32" fill="none" xmlns="http://www.w3.org/2000/svg">
<g id="Frame">
<g id="Group">
<path id="Vector" d="M2 6.99985C2.0012 6.42643 2.19948 5.87086 2.5616 5.42626C2.92373 4.98165 3.42768 4.67505 3.98899 4.55784C4.5503 4.44063 5.13484 4.51995 5.64462 4.78249C6.1544 5.04502 6.55844 5.47483 6.789 5.99985H9.5C9.65839 5.99985 9.81451 6.03748 9.95551 6.10963C10.0965 6.18178 10.2183 6.28639 10.311 6.41485L12.758 9.80285C12.1649 10.1148 11.6194 10.5098 11.138 10.9758L8.989 7.99985H6.789C6.55998 8.52683 6.15629 8.95875 5.64596 9.22281C5.13563 9.48686 4.54987 9.56691 3.9874 9.44946C3.42493 9.33201 2.92015 9.02425 2.55814 8.57803C2.19612 8.13182 1.999 7.57444 2 6.99985ZM2 15.9998C2.0012 15.4264 2.19948 14.8709 2.5616 14.4263C2.92373 13.9817 3.42768 13.6751 3.98899 13.5578C4.5503 13.4406 5.13484 13.5199 5.64462 13.7825C6.1544 14.045 6.55844 14.4748 6.789 14.9998H9.08C8.97402 15.6623 8.97402 16.3374 9.08 16.9998H6.789C6.55998 17.5268 6.15629 17.9587 5.64596 18.2228C5.13563 18.4869 4.54987 18.5669 3.9874 18.4495C3.42493 18.332 2.92015 18.0242 2.55814 17.578C2.19612 17.1318 1.999 16.5744 2 15.9998ZM13.5 4.49985C13.4996 4.04902 13.6211 3.60648 13.8516 3.21907C14.0822 2.83166 14.4132 2.5138 14.8096 2.29914C15.2061 2.08448 15.6532 1.98102 16.1036 1.99971C16.5541 2.01839 16.9911 2.15853 17.3684 2.40528C17.7456 2.65203 18.0492 2.99622 18.2469 3.40139C18.4445 3.80657 18.529 4.25766 18.4912 4.70689C18.4535 5.15613 18.295 5.5868 18.0324 5.95331C17.7699 6.31982 17.4132 6.60852 17 6.78885V9.07985C16.3375 8.97386 15.6625 8.97386 15 9.07985V6.78885C14.5544 6.59464 14.1751 6.27462 13.9087 5.86804C13.6422 5.46145 13.5002 4.98596 13.5 4.49985ZM19.243 9.80185L21.69 6.41385C21.7826 6.28559 21.9043 6.18117 22.0451 6.10919C22.1859 6.03721 22.3418 5.99973 22.5 5.99985H25.211C25.44 5.47286 25.8437 5.04094 26.354 4.77689C26.8644 4.51283 27.4501 4.43278 28.0126 4.55023C28.5751 4.66768 29.0799 4.97545 29.4419 5.42166C29.8039 5.86787 30.001 6.42525 30 6.99985C29.9988 7.57326 29.8005 8.12883 29.4384 8.57344C29.0763 9.01804 28.5723 9.32464 28.011 9.44185C27.4497 9.55906 26.8652 9.47975 26.3554 9.21721C25.8456 8.95467 25.4416 8.52487 25.211 7.99985H23.011L20.862 10.9748C20.3811 10.5085 19.8359 10.1135 19.243 9.80185ZM30 24.9998C29.9988 25.5733 29.8005 26.1288 29.4384 26.5734C29.0763 27.018 28.5723 27.3246 28.011 27.4418C27.4497 27.5591 26.8652 27.4797 26.3554 27.2172C25.8456 26.9547 25.4416 26.5249 25.211 25.9998H22.5C22.3416 25.9998 22.1855 25.9622 22.0445 25.8901C21.9035 25.8179 21.7817 25.7133 21.689 25.5848L19.242 22.1968C19.8351 21.8849 20.3806 21.4899 20.862 21.0238L23.011 23.9998H25.211C25.44 23.4729 25.8437 23.0409 26.354 22.7769C26.8644 22.5128 27.4501 22.4328 28.0126 22.5502C28.5751 22.6677 29.0799 22.9754 29.4419 23.4217C29.8039 23.8679 30.001 24.4252 30 24.9998ZM12.757 22.1978L10.31 25.5858C10.2175 25.7141 10.0957 25.8185 9.95492 25.8905C9.81409 25.9625 9.65816 26 9.5 25.9998H6.789C6.55998 26.5268 6.15629 26.9587 5.64596 27.2228C5.13563 27.4869 4.54987 27.5669 3.9874 27.4495C3.42493 27.332 2.92015 27.0242 2.55814 26.578C2.19612 26.1318 1.999 25.5744 2 24.9998C2.0012 24.4264 2.19948 23.8709 2.5616 23.4263C2.92373 22.9817 3.42768 22.6751 3.98899 22.5578C4.5503 22.4406 5.13484 22.5199 5.64462 22.7825C6.1544 23.045 6.55844 23.4748 6.789 23.9998H8.989L11.138 21.0248C11.617 21.4888 12.161 21.8848 12.757 22.1978ZM30 15.9998C29.9988 16.5733 29.8005 17.1288 29.4384 17.5734C29.0763 18.018 28.5723 18.3246 28.011 18.4418C27.4497 18.5591 26.8652 18.4797 26.3554 18.2172C25.8456 17.9547 25.4416 17.5249 25.211 16.9998H22.92C23.026 16.3374 23.026 15.6623 22.92 14.9998H25.211C25.44 14.4729 25.8437 14.0409 26.354 13.7769C26.8644 13.5128 27.4501 13.4328 28.0126 13.5502C28.5751 13.6677 29.0799 13.9754 29.4419 14.4217C29.8039 14.8679 30.001 15.4252 30 15.9998ZM18.5 27.4998C18.5004 27.9507 18.3789 28.3932 18.1484 28.7806C17.9178 29.168 17.5868 29.4859 17.1904 29.7006C16.7939 29.9152 16.3468 30.0187 15.8964 30C15.446 29.9813 15.009 29.8412 14.6317 29.5944C14.2544 29.3477 13.9508 29.0035 13.7531 28.5983C13.5555 28.1931 13.471 27.742 13.5088 27.2928C13.5465 26.8436 13.7051 26.4129 13.9676 26.0464C14.2301 25.6799 14.5868 25.3912 15 25.2108V22.9198C15.6625 23.0258 16.3375 23.0258 17 22.9198V25.2108C17.4456 25.4051 17.8249 25.7251 18.0914 26.1317C18.3578 26.5382 18.4998 27.0137 18.5 27.4998Z" fill="#4B73FF"/>
<path id="Vector_2" d="M21.5 16C21.5 17.4587 20.9205 18.8576 19.8891 19.8891C18.8576 20.9205 17.4587 21.5 16 21.5C14.5413 21.5 13.1424 20.9205 12.1109 19.8891C11.0795 18.8576 10.5 17.4587 10.5 16C10.5 14.5413 11.0795 13.1424 12.1109 12.1109C13.1424 11.0795 14.5413 10.5 16 10.5C17.4587 10.5 18.8576 11.0795 19.8891 12.1109C20.9205 13.1424 21.5 14.5413 21.5 16Z" fill="#F8D33A"/>
</g>
</g>
</svg>
