<svg width="32" height="32" viewBox="0 0 32 32" fill="none" xmlns="http://www.w3.org/2000/svg">
<g id="Frame">
<path id="Vector" fill-rule="evenodd" clip-rule="evenodd" d="M26.5894 21.1442C26.5894 22.6342 25.3769 23.8467 23.8863 23.8467C22.3963 23.8467 21.1838 22.6342 21.1838 21.1442C21.1838 19.6536 22.3963 18.4411 23.8863 18.4411C25.3769 18.4411 26.5894 19.6536 26.5894 21.1442ZM29.0069 28.8198C29.0606 29.2992 28.925 29.7242 28.6038 30.0836C28.2825 30.4429 27.8756 30.6248 27.3931 30.6248H21.8425C21.8863 30.5817 21.9294 30.5373 21.9719 30.4904C22.4888 29.9123 22.7163 29.1986 22.6294 28.4273C22.5 27.2761 22.0288 26.1948 21.2825 25.3148C21.8696 25.0382 22.5105 24.8948 23.1594 24.8948H24.6138C26.8663 24.8948 28.755 26.5823 29.0069 28.8198ZM21.4119 29.9911C21.0356 30.4117 20.5588 30.6248 19.9944 30.6248H12.0056C11.4413 30.6248 10.9644 30.4117 10.5881 29.9911C10.2119 29.5698 10.0531 29.0723 10.1163 28.5111C10.4056 25.9361 12.5794 23.9948 15.1719 23.9948H16.8281C19.4206 23.9948 21.5944 25.9361 21.8838 28.5111C21.9469 29.0723 21.7881 29.5698 21.4119 29.9911ZM12.8694 19.7742C12.8694 18.0479 14.2738 16.6436 16 16.6436C17.7263 16.6436 19.1306 18.0479 19.1306 19.7742C19.1306 21.5004 17.7263 22.9048 16 22.9048C14.2738 22.9048 12.8694 21.5004 12.8694 19.7742ZM9.37064 28.4273C9.28377 29.1986 9.51127 29.9117 10.0281 30.4904C10.07 30.5373 10.1138 30.5817 10.1575 30.6248H4.60689C4.12502 30.6248 3.71752 30.4429 3.39627 30.0836C3.07502 29.7242 2.93939 29.2992 2.99314 28.8198C3.24502 26.5823 5.13377 24.8948 7.38627 24.8948H8.84064C9.49189 24.8948 10.1325 25.0392 10.7175 25.3148C9.97189 26.1948 9.50002 27.2761 9.37064 28.4273ZM5.41127 21.1442C5.41127 19.6536 6.62377 18.4411 8.11377 18.4411C9.60377 18.4411 10.8169 19.6536 10.8169 21.1442C10.8169 22.6342 9.60439 23.8467 8.11377 23.8467C6.62377 23.8467 5.41127 22.6342 5.41127 21.1442Z" fill="#4B73FF"/>
<path id="Vector_2" fill-rule="evenodd" clip-rule="evenodd" d="M9.94001 11.2319C10.0011 11.1919 10.0726 11.1706 10.1456 11.1706H16.6006C17.6481 11.1706 18.5006 10.3181 18.5006 9.27V3.27562C18.5006 2.2275 17.6481 1.375 16.6006 1.375H3.62938C2.58126 1.375 1.72876 2.2275 1.72876 3.27562V9.27C1.72876 10.3181 2.58126 11.1706 3.62938 11.1706H3.97251C4.17938 11.1706 4.34751 11.3381 4.34751 11.5456V13.9913C4.34751 14.1794 4.43876 14.3325 4.60438 14.4219C4.77001 14.5119 4.94813 14.5044 5.10563 14.4006L9.94001 11.2319ZM13.6538 6.70125C13.5866 6.63441 13.5334 6.55492 13.4971 6.46739C13.4608 6.37985 13.4423 6.286 13.4425 6.19125C13.4425 5.9925 13.5231 5.81187 13.6538 5.68125C13.7844 5.55063 13.9644 5.47 14.1638 5.47C14.3631 5.47 14.5431 5.55063 14.6738 5.68125C14.8044 5.81187 14.885 5.9925 14.885 6.19125C14.885 6.39062 14.8044 6.57125 14.6738 6.70125C14.5431 6.83187 14.3631 6.91313 14.1638 6.91313C13.9644 6.91313 13.7838 6.83187 13.6538 6.70125ZM10.625 6.70125C10.5581 6.76839 10.4786 6.82167 10.3911 6.85803C10.3036 6.89439 10.2098 6.91311 10.115 6.91313C9.91563 6.91313 9.73563 6.83187 9.60501 6.70125C9.53786 6.63441 9.48461 6.55492 9.44836 6.46739C9.4121 6.37985 9.39354 6.286 9.39376 6.19125C9.39376 5.9925 9.47438 5.81187 9.60501 5.68125C9.73563 5.55063 9.91563 5.47 10.115 5.47C10.3144 5.47 10.4944 5.55063 10.625 5.68125C10.7556 5.81187 10.8363 5.9925 10.8363 6.19125C10.8363 6.39062 10.7556 6.57125 10.625 6.70125ZM6.57689 5.68125C6.70751 5.81187 6.78813 5.9925 6.78813 6.19125C6.78813 6.39062 6.70751 6.57125 6.57689 6.70125C6.51004 6.76844 6.43057 6.82175 6.34304 6.85811C6.25551 6.89447 6.16166 6.91317 6.06688 6.91313C5.86813 6.91313 5.68751 6.83187 5.55689 6.70125C5.48973 6.63441 5.43649 6.55492 5.40023 6.46739C5.36397 6.37985 5.34542 6.286 5.34563 6.19125C5.34563 5.9925 5.42626 5.81187 5.55689 5.68125C5.68751 5.55063 5.86813 5.47 6.06688 5.47C6.26564 5.47 6.44626 5.55063 6.57689 5.68125ZM19.2513 9.27C19.2513 10.7313 18.0625 11.9206 16.6013 11.9206H13.4988V12.0725C13.4988 13.12 14.3513 13.9725 15.3988 13.9725H21.8538C21.9269 13.9725 21.9981 13.9944 22.0594 14.0344L26.8944 17.2031C27.0519 17.3062 27.23 17.3137 27.3956 17.2244C27.5613 17.135 27.6525 16.9819 27.6525 16.7931V14.3475C27.6525 14.1406 27.8206 13.9725 28.0275 13.9725H28.3706C29.4188 13.9725 30.2713 13.12 30.2713 12.0725V6.07812C30.2713 5.03 29.4188 4.1775 28.3706 4.1775H19.2513V9.27ZM22.395 8.48375C22.5256 8.61438 22.6063 8.79437 22.6063 8.99375C22.6063 9.19312 22.5256 9.37313 22.395 9.50375C22.2644 9.63437 22.0844 9.715 21.885 9.715C21.6856 9.715 21.5056 9.63437 21.375 9.50375C21.2444 9.37313 21.1638 9.19312 21.1638 8.99375C21.1638 8.79437 21.2444 8.61438 21.375 8.48375C21.5056 8.35313 21.6863 8.2725 21.885 8.2725C22.0844 8.2725 22.2644 8.35313 22.395 8.48375ZM25.9331 9.715C25.7344 9.715 25.5538 9.63437 25.4231 9.50375C25.2925 9.37313 25.2119 9.19312 25.2119 8.99375C25.2119 8.79437 25.2925 8.61438 25.4231 8.48375C25.5538 8.35313 25.7344 8.2725 25.9331 8.2725C26.1325 8.2725 26.3131 8.35313 26.4438 8.48375C26.5108 8.55071 26.5639 8.63021 26.6002 8.71772C26.6364 8.80523 26.6551 8.89902 26.6551 8.99375C26.6551 9.08847 26.6364 9.18227 26.6002 9.26978C26.5639 9.35729 26.5108 9.43679 26.4438 9.50375C26.3768 9.57086 26.2972 9.62407 26.2095 9.66032C26.1219 9.69658 26.028 9.71516 25.9331 9.715Z" fill="#F8D33A"/>
</g>
</svg>
