<svg width="32" height="32" viewBox="0 0 32 32" fill="none" xmlns="http://www.w3.org/2000/svg">
<g id="Frame" clip-path="url(#clip0_12263_4482)">
<g id="Group">
<path id="Vector" d="M4.68811 7.5625C6.24141 7.5625 7.50061 6.3033 7.50061 4.75C7.50061 3.1967 6.24141 1.9375 4.68811 1.9375C3.13481 1.9375 1.87561 3.1967 1.87561 4.75C1.87561 6.3033 3.13481 7.5625 4.68811 7.5625Z" fill="#F8D33A"/>
<path id="Vector_2" d="M31.9994 4.6875C31.9994 2.10294 29.8964 0 27.3119 0C24.7273 0 22.6244 2.10294 22.6244 4.6875C22.6244 6.951 24.2374 8.84456 26.3744 9.28012V11.4074C24.2374 11.8429 22.6244 13.7365 22.6244 16C22.6244 16.9538 22.914 17.8398 23.4053 18.5809L18.5802 23.4059C17.8391 22.9146 16.9531 22.625 15.9994 22.625C15.0456 22.625 14.1596 22.9146 13.4185 23.4059L8.59467 18.5809C9.08599 17.8398 9.37561 16.9538 9.37561 16C9.37561 15.0463 9.08599 14.1602 8.59467 13.4191L14.7332 7.28062C15.0999 7.45606 15.5052 7.5625 15.9381 7.5625C17.489 7.5625 18.7506 6.30087 18.7506 4.75C18.7506 3.19913 17.489 1.9375 15.9381 1.9375C14.3872 1.9375 13.1256 3.19913 13.1256 4.75C13.1256 5.18294 13.232 5.58825 13.4075 5.95494L7.26899 12.0934C6.52786 11.6021 5.64186 11.3125 4.68811 11.3125C2.10355 11.3125 0.000610352 13.4154 0.000610352 16C0.000610352 18.2635 1.61367 20.1571 3.75061 20.5926V24.6727C2.66174 25.061 1.87561 26.0919 1.87561 27.3125C1.87561 28.8634 3.13724 30.125 4.68811 30.125C5.90874 30.125 6.93961 29.3389 7.32792 28.25H11.4067C11.8422 30.3869 13.7358 32 15.9993 32C18.5839 32 20.6868 29.8971 20.6868 27.3125C20.6868 26.3587 20.3972 25.4727 19.9059 24.7316L24.7309 19.9066C25.4721 20.3979 26.3581 20.6875 27.3119 20.6875C29.8964 20.6875 31.9994 18.5846 31.9994 16C31.9994 13.7365 30.3863 11.8429 28.2494 11.4074V9.28012C30.3863 8.84456 31.9994 6.951 31.9994 4.6875ZM5.62561 24.6727V20.5926C6.22299 20.4709 6.77736 20.2325 7.26899 19.9066L12.0928 24.7316C11.7669 25.2232 11.5285 25.7776 11.4067 26.375H7.32799C7.18813 25.9828 6.96283 25.6266 6.66841 25.3322C6.37398 25.0378 6.01779 24.8125 5.62561 24.6727Z" fill="#4B73FF"/>
<path id="Vector_3" d="M15.9994 18.8125C17.5527 18.8125 18.8119 17.5533 18.8119 16C18.8119 14.4467 17.5527 13.1875 15.9994 13.1875C14.4461 13.1875 13.1869 14.4467 13.1869 16C13.1869 17.5533 14.4461 18.8125 15.9994 18.8125Z" fill="#F8D33A"/>
<path id="Vector_4" d="M27.2494 30.0625C28.8027 30.0625 30.0619 28.8033 30.0619 27.25C30.0619 25.6967 28.8027 24.4375 27.2494 24.4375C25.6961 24.4375 24.4369 25.6967 24.4369 27.25C24.4369 28.8033 25.6961 30.0625 27.2494 30.0625Z" fill="#F8D33A"/>
</g>
</g>
<defs>
<clipPath id="clip0_12263_4482">
<rect width="32" height="32" fill="white"/>
</clipPath>
</defs>
</svg>
