<svg width="32" height="32" viewBox="0 0 32 32" fill="none" xmlns="http://www.w3.org/2000/svg">
<g id="Frame" clip-path="url(#clip0_12257_4302)">
<g id="Group">
<path id="Vector" d="M8.68673 5.6875H15.6882C16.6908 3.44038 18.4539 1.62331 18.4687 1.59375C18.7499 1.33125 18.8249 0.9375 18.6749 0.58125C18.525 0.225 18.1875 0 17.8125 0C16.125 0 15.2062 0.6 14.475 1.0875C13.8187 1.5375 13.3125 1.875 12.1875 1.875C11.0625 1.875 10.5562 1.5375 9.89998 1.0875C9.16873 0.6 8.24998 0 6.56248 0C6.18748 0 5.84998 0.225 5.69998 0.58125C5.54998 0.9375 5.62498 1.33125 5.90623 1.59375C5.92104 1.62331 7.6841 3.44038 8.68673 5.6875ZM18.8125 29.1875V31.0625C18.8125 31.5802 19.2322 32 19.75 32H31.0625C31.5802 32 32 31.5802 32 31.0625V29.1875C32 28.6698 31.5802 28.25 31.0625 28.25H19.75C19.2322 28.25 18.8125 28.6698 18.8125 29.1875ZM32 25.4375V23.5625C32 23.0448 31.5802 22.625 31.0625 22.625H19.75C19.2322 22.625 18.8125 23.0448 18.8125 23.5625V25.4375C18.8125 25.9552 19.2322 26.375 19.75 26.375H31.0625C31.5802 26.375 32 25.9552 32 25.4375Z" fill="#F8D33A"/>
<path id="Vector_2" d="M18.6938 15.1625C16.8563 13.3625 15.3562 11.8375 15.0562 9.4375H15.9375C16.4625 9.4375 16.875 9.025 16.875 8.5C16.875 7.975 16.4625 7.5625 15.9375 7.5625H8.4375C7.9125 7.5625 7.5 7.975 7.5 8.5C7.5 9.025 7.9125 9.4375 8.4375 9.4375H9.31875C9.01875 11.8375 7.51875 13.3625 5.68125 15.1625C3.01875 17.7688 0 20.7312 0 27.5C0.0375 29.975 2.15625 32 4.6875 32H17.0475C16.9425 31.7056 16.875 31.3925 16.875 31.0625V23.5625C16.875 22.0119 18.1369 20.75 19.6875 20.75H23.0456C21.9113 18.3188 20.2288 16.6688 18.6938 15.1625ZM12.1875 20.75C13.7384 20.75 15 22.0116 15 23.5625C15 24.7831 14.2139 25.814 13.125 26.2023V27.3125C13.125 27.8307 12.7057 28.25 12.1875 28.25C11.6693 28.25 11.25 27.8307 11.25 27.3125V26.2023C10.1611 25.8141 9.375 24.7831 9.375 23.5625C9.375 23.0443 9.79431 22.625 10.3125 22.625C10.8307 22.625 11.25 23.0443 11.25 23.5625C11.25 24.0798 11.6702 24.5 12.1875 24.5C12.7048 24.5 13.125 24.0798 13.125 23.5625C13.125 23.0452 12.7048 22.625 12.1875 22.625C10.6366 22.625 9.375 21.3634 9.375 19.8125C9.375 18.5919 10.1611 17.561 11.25 17.1727V16.0625C11.25 15.5443 11.6693 15.125 12.1875 15.125C12.7057 15.125 13.125 15.5443 13.125 16.0625V17.1727C14.2139 17.5609 15 18.5919 15 19.8125C15 20.3307 14.5807 20.75 14.0625 20.75C13.5443 20.75 13.125 20.3307 13.125 19.8125C13.125 19.2952 12.7048 18.875 12.1875 18.875C11.6702 18.875 11.25 19.2952 11.25 19.8125C11.25 20.3298 11.6702 20.75 12.1875 20.75Z" fill="#4B73FF"/>
</g>
</g>
<defs>
<clipPath id="clip0_12257_4302">
<rect width="32" height="32" fill="white"/>
</clipPath>
</defs>
</svg>
