<svg width="32" height="32" viewBox="0 0 32 32" fill="none" xmlns="http://www.w3.org/2000/svg">
<g id="Frame" clip-path="url(#clip0_12258_4438)">
<g id="Group">
<path id="Vector" d="M24.2273 16.7229C25.9385 15.5331 26.9716 13.5866 26.9716 11.4627C26.9716 7.928 24.0959 5.05225 20.5611 5.05225C18.4504 5.05225 16.5036 6.08162 15.3116 7.78293C19.5815 9.06906 22.9525 12.4482 24.2273 16.7229Z" fill="#4B73FF"/>
<path id="Vector_2" d="M13.3669 7.3545C14.8426 4.77238 17.5751 3.17906 20.5612 3.17906C25.1289 3.17906 28.845 6.89519 28.845 11.4629C28.845 14.4663 27.2464 17.1947 24.6504 18.6677C24.7362 19.2803 24.7793 19.898 24.7795 20.5165C24.7795 21.0824 24.7437 21.6401 24.6747 22.1876C28.9573 20.5181 32 16.3496 32 11.4835C32 5.1515 26.8485 0 20.5165 0C15.6503 0 11.4819 3.04269 9.81244 7.32525C10.3667 7.25546 10.9248 7.22047 11.4835 7.2205C12.1228 7.2205 12.7514 7.26687 13.3669 7.3545ZM1.87338 7.38644C1.87338 5.4675 3.4345 3.90637 5.35344 3.90637H5.44694L4.76625 4.58712L6.09094 5.91181L9.03306 2.96975L6.09088 0.027625L4.76625 1.35231L5.44694 2.03306H5.35344C2.4015 2.033 0 4.43456 0 7.38644V9.52825H1.87338V7.38644ZM30.1266 24.6136C30.1266 26.5325 28.5655 28.0936 26.6466 28.0936H26.5531L27.2337 27.4129L25.9091 26.0882L22.9669 29.0303L25.9091 31.9723L27.2337 30.6476L26.5531 29.9669H26.6466C29.5984 29.9669 32 27.5654 32 24.6135V22.4717H30.1266V24.6136Z" fill="#4B73FF"/>
<g id="Union">
<path d="M13.5429 19.5799H10.231V18.0708H13.5429C13.9589 18.0708 14.2974 18.4093 14.2974 18.8254C14.2974 19.2414 13.9589 19.5799 13.5429 19.5799Z" fill="#F8D33A"/>
<path d="M10.231 21.4532H13.5429C13.9589 21.4532 14.2974 21.7917 14.2974 22.2077C14.2974 22.6237 13.9589 22.9622 13.5429 22.9622H10.231V21.4532Z" fill="#F8D33A"/>
<path fill-rule="evenodd" clip-rule="evenodd" d="M11.4835 9.0332C17.8155 9.0332 22.967 14.1847 22.967 20.5167C22.967 26.8487 17.8155 32.0002 11.4835 32.0002C5.1515 32.0002 0 26.8487 0 20.5167C0 14.1847 5.1515 9.0332 11.4835 9.0332ZM13.7281 26.3328V24.8285C15.0909 24.7331 16.1707 23.5946 16.1707 22.2079C16.1707 21.5642 15.9377 20.9741 15.5521 20.5167C15.9377 20.0593 16.1707 19.4693 16.1707 18.8255C16.1707 17.4388 15.0909 16.3004 13.7281 16.2049V14.7006H11.8547V16.1976H10.2309V14.7006H8.35756V16.1976H6.79625V18.071H8.35756V22.9625H6.79625V24.8358H8.3575V26.3328H10.2309V24.8358H11.8547V26.3328H13.7281Z" fill="#F8D33A"/>
</g>
</g>
</g>
<defs>
<clipPath id="clip0_12258_4438">
<rect width="32" height="32" fill="white"/>
</clipPath>
</defs>
</svg>
