<svg width="32" height="32" viewBox="0 0 32 32" fill="none" xmlns="http://www.w3.org/2000/svg">
<g id="Frame" clip-path="url(#clip0_12257_4306)">
<g id="Group">
<path id="Vector" d="M12.25 13.1875H19.75C20.2683 13.1875 20.6875 12.7683 20.6875 12.25C20.6875 11.7319 20.2683 11.3125 19.75 11.3125H12.25C11.7319 11.3125 11.3125 11.7319 11.3125 12.25C11.3125 12.7683 11.7319 13.1875 12.25 13.1875ZM12.25 16.9375H19.75C20.2683 16.9375 20.6875 16.5183 20.6875 16C20.6875 15.4819 20.2683 15.0625 19.75 15.0625H12.25C11.7319 15.0625 11.3125 15.4819 11.3125 16C11.3125 16.5183 11.7319 16.9375 12.25 16.9375ZM12.25 20.6875H19.75C20.2683 20.6875 20.6875 20.2683 20.6875 19.75C20.6875 19.2319 20.2683 18.8125 19.75 18.8125H12.25C11.7319 18.8125 11.3125 19.2319 11.3125 19.75C11.3125 20.2683 11.7319 20.6875 12.25 20.6875Z" fill="#F8D33A"/>
<path id="Vector_2" d="M20.753 6.88296C23.2348 8.18084 25.1326 10.4423 25.9128 13.1874H24.4375C24.2678 13.1874 24.1012 13.2334 23.9555 13.3207C23.8099 13.4079 23.6907 13.5331 23.6106 13.6828C23.5308 13.8324 23.493 14.0009 23.5013 14.1703C23.5095 14.3397 23.5635 14.5037 23.6575 14.6449C23.7676 14.8349 27.1519 20.6632 26.9388 20.296C27.2866 20.8178 28.1509 20.8178 28.4988 20.296C28.8563 19.6808 31.9653 14.4337 31.8428 14.6449C31.9368 14.5037 31.9907 14.3397 31.9989 14.1703C32.0071 14.0009 31.9693 13.8324 31.8894 13.6828C31.8094 13.5331 31.6902 13.4079 31.5446 13.3207C31.3991 13.2334 31.2325 13.1874 31.0628 13.1874H29.7803C28.9251 8.97503 26.1696 5.4779 22.4646 3.55365C22.5264 3.78871 22.5615 4.03165 22.5615 4.28115C22.5635 6.28703 20.9412 6.75796 20.753 6.88296ZM14.645 0.157152C14.5038 0.0632354 14.3398 0.00931015 14.1704 0.00110106C14.001 -0.00710803 13.8325 0.0307054 13.6829 0.110527C13.5332 0.190588 13.408 0.309794 13.3208 0.455423C13.2336 0.601052 13.1875 0.767639 13.1875 0.937402V2.21965C8.10502 3.25159 4.02859 7.02865 2.54715 11.932C3.04815 11.5363 3.64284 11.3134 4.28127 11.3134C5.12159 11.3134 5.88627 11.6847 6.40971 12.2953C7.57059 9.3024 10.0678 6.97378 13.1875 6.08709V7.5624C13.1875 7.73217 13.2336 7.89875 13.3208 8.04438C13.408 8.19001 13.5332 8.30922 13.6829 8.38928C13.8325 8.4691 14.001 8.50692 14.1704 8.49871C14.3398 8.4905 14.5038 8.43657 14.645 8.34265C14.835 8.23234 20.6633 4.84803 20.2962 5.06115C20.8181 4.71328 20.8181 3.84903 20.2962 3.50115C19.681 3.14396 14.4338 0.0345897 14.645 0.157152ZM0.110649 20.192C0.19071 20.3417 0.309916 20.4669 0.455545 20.5541C0.601175 20.6414 0.767761 20.6874 0.937524 20.6874H2.75465C3.94777 24.057 6.4014 26.8048 9.53177 28.4367C9.47026 28.2023 9.43893 27.961 9.43852 27.7187C9.43652 25.7213 11.0459 25.2482 11.2336 25.1237C9.34646 24.1354 7.79984 22.5853 6.82596 20.6874H7.56252C7.73229 20.6874 7.89887 20.6414 8.0445 20.5541C8.19013 20.4669 8.30934 20.3417 8.3894 20.192C8.46924 20.0424 8.50705 19.8739 8.49879 19.7045C8.49054 19.5351 8.43654 19.3711 8.34252 19.2299C8.23246 19.0399 4.84815 13.2116 5.06127 13.5788C4.7134 13.057 3.84915 13.057 3.50127 13.5788C3.25415 14.0043 -0.0446632 19.578 0.157274 19.2299C0.0633575 19.3711 0.00943222 19.5351 0.00122313 19.7045C-0.00698596 19.8739 0.0308275 20.0424 0.110649 20.192ZM18.8125 24.4374C18.8126 24.2676 18.7665 24.1011 18.6792 23.9554C18.592 23.8098 18.4669 23.6906 18.3172 23.6105C18.1675 23.5307 17.999 23.4929 17.8296 23.5011C17.6602 23.5094 17.4962 23.5634 17.355 23.6574C17.165 23.7675 11.3367 27.1518 11.7039 26.9387C11.1821 27.2865 11.1821 28.1508 11.7039 28.4987C12.3191 28.8558 17.5662 31.9652 17.355 31.8427C17.4962 31.9366 17.6602 31.9906 17.8297 31.9988C17.9991 32.007 18.1675 31.9692 18.3172 31.8893C18.4668 31.8093 18.592 31.6901 18.6792 31.5445C18.7665 31.3989 18.8126 31.2324 18.8125 31.0627V29.7802C23.0247 28.925 26.5215 26.1701 28.4458 22.4652C28.2112 22.5273 27.9683 22.5624 27.7188 22.5624C26.1263 22.5624 25.5232 21.5478 25.085 20.818C23.7818 23.2685 21.5338 25.1393 18.8125 25.9127V24.4374Z" fill="#4B73FF"/>
</g>
</g>
<defs>
<clipPath id="clip0_12257_4306">
<rect width="32" height="32" fill="white"/>
</clipPath>
</defs>
</svg>
