<svg width="32" height="32" viewBox="0 0 32 32" fill="none" xmlns="http://www.w3.org/2000/svg">
<g id="Frame">
<g id="Group">
<g id="Group_2">
<path id="Vector" fill-rule="evenodd" clip-rule="evenodd" d="M16.0001 21.3332C18.4754 21.3332 20.8494 20.3498 22.5997 18.5995C24.3501 16.8492 25.3334 14.4752 25.3334 11.9998C25.3334 9.52448 24.3501 7.15051 22.5997 5.40017C20.8494 3.64983 18.4754 2.6665 16.0001 2.6665C13.5247 2.6665 11.1508 3.64983 9.40042 5.40017C7.65008 7.15051 6.66675 9.52448 6.66675 11.9998C6.66675 14.4752 7.65008 16.8492 9.40042 18.5995C11.1508 20.3498 13.5247 21.3332 16.0001 21.3332ZM16.0001 7.99984C15.6214 7.99984 15.3681 8.45317 14.8614 9.36384L14.7307 9.5985C14.5867 9.85717 14.5147 9.98517 14.4014 10.0705C14.2894 10.1558 14.1494 10.1878 13.8707 10.2505L13.6161 10.3092C12.6321 10.5318 12.1401 10.6425 12.0227 11.0185C11.9054 11.3945 12.2414 11.7878 12.9121 12.5718L13.0854 12.7745C13.2761 12.9972 13.3721 13.1078 13.4147 13.2465C13.4574 13.3852 13.4427 13.5332 13.4147 13.8305L13.3881 14.1012C13.2867 15.1478 13.2361 15.6718 13.5427 15.9038C13.8494 16.1358 14.3094 15.9238 15.2307 15.4998L15.4681 15.3905C15.7307 15.2705 15.8614 15.2092 16.0001 15.2092C16.1387 15.2092 16.2694 15.2705 16.5321 15.3905L16.7694 15.4998C17.6907 15.9238 18.1521 16.1358 18.4574 15.9038C18.7641 15.6718 18.7134 15.1478 18.6121 14.1012L18.5854 13.8305C18.5574 13.5332 18.5427 13.3852 18.5854 13.2465C18.6281 13.1092 18.7241 12.9972 18.9147 12.7745L19.0881 12.5718C19.7587 11.7878 20.0947 11.3958 19.9774 11.0185C19.8601 10.6412 19.3681 10.5318 18.3841 10.3092L18.1307 10.2505C17.8507 10.1878 17.7107 10.1572 17.5974 10.0705C17.4854 9.98517 17.4134 9.85717 17.2694 9.5985L17.1387 9.36384C16.6321 8.45317 16.3787 7.99984 16.0001 7.99984Z" fill="#4B73FF"/>
<path id="Vector_2" d="M9.45739 21.2544L8.95205 23.0971C8.11472 26.1531 7.69605 27.6811 8.25472 28.5171C8.45072 28.8104 8.71339 29.0451 9.01872 29.2011C9.88805 29.6437 11.2321 28.9437 13.9187 27.5437C14.8121 27.0771 15.2601 26.8451 15.7347 26.7944C15.9111 26.7755 16.089 26.7755 16.2654 26.7944C16.7401 26.8451 17.1867 27.0784 18.0814 27.5437C20.7681 28.9437 22.1121 29.6437 22.9814 29.2011C23.2867 29.0451 23.5494 28.8104 23.7454 28.5171C24.3054 27.6811 23.8854 26.1531 23.0481 23.0971L22.5427 21.2544C20.6947 22.5637 18.4361 23.3331 16.0001 23.3331C13.5641 23.3331 11.3067 22.5637 9.45739 21.2544Z" fill="#F8D33A"/>
</g>
</g>
</g>
</svg>
