<svg width="32" height="32" viewBox="0 0 32 32" fill="none" xmlns="http://www.w3.org/2000/svg">
<g id="Frame">
<g id="Group">
<g id="Layer 2">
<path id="Vector" d="M23 17C21.8133 17 20.6533 17.3519 19.6666 18.0112C18.6799 18.6705 17.9108 19.6075 17.4567 20.7039C17.0026 21.8003 16.8838 23.0067 17.1153 24.1705C17.3468 25.3344 17.9182 26.4035 18.7574 27.2426C19.5965 28.0818 20.6656 28.6532 21.8295 28.8847C22.9933 29.1162 24.1997 28.9974 25.2961 28.5433C26.3925 28.0892 27.3295 27.3201 27.9888 26.3334C28.6481 25.3467 29 24.1867 29 23C28.9984 21.4092 28.3658 19.884 27.2409 18.7591C26.116 17.6342 24.5908 17.0016 23 17ZM25.9 24.447C25.8413 24.5646 25.7601 24.6694 25.6609 24.7556C25.5617 24.8417 25.4465 24.9075 25.3218 24.9491C25.1972 24.9907 25.0656 25.0073 24.9345 24.9981C24.8035 24.9888 24.6755 24.9538 24.558 24.895L22.558 23.895C22.3908 23.8126 22.25 23.6852 22.1514 23.527C22.0528 23.3689 22.0004 23.1864 22 23V20C22 19.7348 22.1054 19.4804 22.2929 19.2929C22.4804 19.1054 22.7348 19 23 19C23.2652 19 23.5196 19.1054 23.7071 19.2929C23.8946 19.4804 24 19.7348 24 20V22.382L25.447 23.105C25.565 23.1632 25.6704 23.2441 25.757 23.3432C25.8437 23.4422 25.91 23.5573 25.952 23.682C25.9941 23.8066 26.0112 23.9384 26.0023 24.0697C25.9933 24.201 25.9586 24.3292 25.9 24.447ZM27 7C27 6.20435 26.6839 5.44129 26.1213 4.87868C25.5587 4.31607 24.7956 4 24 4H21V3C21 2.73478 20.8946 2.48043 20.7071 2.29289C20.5196 2.10536 20.2652 2 20 2C19.7348 2 19.4804 2.10536 19.2929 2.29289C19.1054 2.48043 19 2.73478 19 3V4H10V3C10 2.73478 9.89464 2.48043 9.70711 2.29289C9.51957 2.10536 9.26522 2 9 2C8.73478 2 8.48043 2.10536 8.29289 2.29289C8.10536 2.48043 8 2.73478 8 3V4H5C4.20435 4 3.44129 4.31607 2.87868 4.87868C2.31607 5.44129 2 6.20435 2 7V10H27V7Z" fill="#F8D33A"/>
<path id="Vector_2" d="M23 15C24.4056 14.998 25.7864 15.3708 27 16.08V12H2V24C2.00237 24.7949 2.31921 25.5566 2.8813 26.1187C3.4434 26.6808 4.20508 26.9976 5 27H16.08C15.3708 25.7864 14.998 24.4056 15 23C15.0029 20.8792 15.8467 18.846 17.3464 17.3464C18.846 15.8467 20.8792 15.0029 23 15ZM8 23H6C5.73478 23 5.48043 22.8946 5.29289 22.7071C5.10536 22.5196 5 22.2652 5 22C5 21.7348 5.10536 21.4804 5.29289 21.2929C5.48043 21.1054 5.73478 21 6 21H8C8.26522 21 8.51957 21.1054 8.70711 21.2929C8.89464 21.4804 9 21.7348 9 22C9 22.2652 8.89464 22.5196 8.70711 22.7071C8.51957 22.8946 8.26522 23 8 23ZM8 18H6C5.73478 18 5.48043 17.8946 5.29289 17.7071C5.10536 17.5196 5 17.2652 5 17C5 16.7348 5.10536 16.4804 5.29289 16.2929C5.48043 16.1054 5.73478 16 6 16H8C8.26522 16 8.51957 16.1054 8.70711 16.2929C8.89464 16.4804 9 16.7348 9 17C9 17.2652 8.89464 17.5196 8.70711 17.7071C8.51957 17.8946 8.26522 18 8 18ZM14 18H12C11.7348 18 11.4804 17.8946 11.2929 17.7071C11.1054 17.5196 11 17.2652 11 17C11 16.7348 11.1054 16.4804 11.2929 16.2929C11.4804 16.1054 11.7348 16 12 16H14C14.2652 16 14.5196 16.1054 14.7071 16.2929C14.8946 16.4804 15 16.7348 15 17C15 17.2652 14.8946 17.5196 14.7071 17.7071C14.5196 17.8946 14.2652 18 14 18Z" fill="#4B73FF"/>
</g>
</g>
</g>
</svg>
