<svg width="32" height="32" viewBox="0 0 32 32" fill="none" xmlns="http://www.w3.org/2000/svg">
<g id="Frame" clip-path="url(#clip0_12258_4423)">
<g id="Group">
<path id="Vector" d="M9.66594 3.83107C9.86873 3.96751 10.1021 4.05178 10.3453 4.07637C10.5884 4.10097 10.8339 4.06514 11.0599 3.97207C12.9659 3.19052 15.0303 2.87299 17.0831 3.04563C19.1359 3.21827 21.1183 3.87615 22.8669 4.96507C23.2673 5.21054 23.6524 5.47986 24.0204 5.77157L22.6464 7.14607C22.5764 7.21597 22.5286 7.30509 22.5092 7.40215C22.4898 7.49921 22.4997 7.59984 22.5376 7.6913C22.5754 7.78275 22.6396 7.86091 22.7219 7.91588C22.8042 7.97084 22.901 8.00014 22.9999 8.00007H27.9999C28.1325 8.00007 28.2597 7.94739 28.3535 7.85362C28.4473 7.75985 28.4999 7.63267 28.4999 7.50007V2.50007C28.4999 2.40119 28.4706 2.30454 28.4156 2.22234C28.3607 2.14013 28.2826 2.07606 28.1913 2.03823C28.0999 2.00039 27.9994 1.99049 27.9024 2.00977C27.8054 2.02906 27.7164 2.07666 27.6464 2.14657L26.1564 3.63657C25.739 3.29521 25.3055 2.97401 24.8574 2.67407C22.6756 1.2247 20.1715 0.332836 17.5647 0.0767161C14.9579 -0.179404 12.3281 0.208041 9.90594 1.20507C9.63525 1.31895 9.40455 1.51079 9.24322 1.75618C9.08188 2.00157 8.9972 2.2894 8.99994 2.58307C8.99974 2.82982 9.06041 3.07281 9.17658 3.2905C9.29276 3.5082 9.46084 3.69387 9.66594 3.83107ZM3.83044 22.3341C3.96693 22.1312 4.05121 21.8978 4.07581 21.6545C4.10041 21.4112 4.06456 21.1656 3.97144 20.9396C3.19024 19.0335 2.87299 16.9692 3.04581 14.9165C3.21862 12.8639 3.87656 10.8817 4.96544 9.13307C5.21116 8.7328 5.48065 8.34761 5.77244 7.97957L7.14644 9.35357C7.21636 9.42347 7.30545 9.47107 7.40242 9.49036C7.4994 9.50964 7.59992 9.49974 7.69127 9.4619C7.78262 9.42407 7.8607 9.36 7.91564 9.27779C7.97058 9.19559 7.99992 9.09894 7.99994 9.00007V4.00007C7.99994 3.86746 7.94726 3.74028 7.85349 3.64651C7.75972 3.55274 7.63255 3.50007 7.49994 3.50007H2.49994C2.40106 3.50009 2.30441 3.52942 2.22221 3.58436C2.14 3.63931 2.07593 3.71739 2.0381 3.80874C2.00026 3.90009 1.99036 4.00061 2.00965 4.09758C2.02893 4.19456 2.07653 4.28364 2.14644 4.35357L3.63644 5.84357C3.30044 6.25357 2.97744 6.68857 2.67394 7.14307C1.22466 9.32472 0.332841 11.8287 0.0767215 14.4353C-0.179398 17.0419 0.208001 19.6715 1.20494 22.0936C1.31875 22.3644 1.51056 22.5951 1.75595 22.7566C2.00134 22.918 2.28922 23.0028 2.58294 23.0001C2.82963 23.0003 3.07257 22.9397 3.29019 22.8235C3.50781 22.7073 3.69339 22.5392 3.83044 22.3341ZM22.3339 28.1691C22.1311 28.0326 21.8978 27.9484 21.6546 27.9238C21.4114 27.8992 21.1659 27.935 20.9399 28.0281C19.0339 28.8095 16.9695 29.127 14.9167 28.9543C12.8639 28.7815 10.8816 28.1236 9.13294 27.0346C8.73262 26.7891 8.34743 26.5198 7.97944 26.2281L9.35344 24.8536C9.42334 24.7836 9.47095 24.6946 9.49023 24.5976C9.50951 24.5006 9.49961 24.4001 9.46178 24.3087C9.42394 24.2174 9.35987 24.1393 9.27767 24.0844C9.19546 24.0294 9.09881 24.0001 8.99994 24.0001H3.99994C3.86733 24.0001 3.74015 24.0527 3.64639 24.1465C3.55262 24.2403 3.49994 24.3675 3.49994 24.5001V29.5001C3.49996 29.5989 3.5293 29.6956 3.58424 29.7778C3.63918 29.86 3.71726 29.9241 3.80861 29.9619C3.89996 29.9997 4.00048 30.0096 4.09745 29.9904C4.19443 29.9711 4.28351 29.9235 4.35344 29.8536L5.84344 28.3636C6.25244 28.6986 6.68794 29.0216 7.14244 29.3261C9.32419 30.7754 11.8282 31.6672 14.4349 31.9233C17.0416 32.1794 19.6713 31.792 22.0934 30.7951C22.3642 30.6813 22.595 30.4894 22.7565 30.2441C22.9179 29.9987 23.0026 29.7108 22.9999 29.4171C23.0001 29.1703 22.9395 28.9273 22.8233 28.7096C22.7071 28.4919 22.539 28.3063 22.3339 28.1691ZM28.3639 26.1566C28.6994 25.7466 29.0219 25.3116 29.3259 24.8571C30.7752 22.6754 31.667 20.1715 31.9232 17.5648C32.1793 14.9582 31.7919 12.3286 30.7949 9.90657C30.6811 9.63578 30.4893 9.40498 30.2439 9.24355C29.9985 9.08212 29.7107 8.99736 29.4169 9.00007C29.1715 8.99959 28.9296 9.05954 28.7128 9.17461C28.4959 9.28969 28.3107 9.45636 28.1735 9.65992C28.0363 9.86348 27.9513 10.0977 27.926 10.3419C27.9007 10.586 27.9359 10.8327 28.0284 11.0601C28.8097 12.9662 29.127 15.0306 28.9542 17.0833C28.7814 19.1361 28.1234 21.1184 27.0344 22.8671C26.7887 23.2673 26.5192 23.6525 26.2274 24.0206L24.8534 22.6466C24.7835 22.5767 24.6944 22.5291 24.5975 22.5098C24.5005 22.4905 24.4 22.5004 24.3086 22.5382C24.2173 22.5761 24.1392 22.6401 24.0842 22.7223C24.0293 22.8045 24 22.9012 23.9999 23.0001V28.0001C23.9999 28.1327 24.0526 28.2598 24.1464 28.3536C24.2402 28.4474 24.3673 28.5001 24.4999 28.5001H29.4999C29.5988 28.5 29.6955 28.4707 29.7777 28.4158C29.8599 28.3608 29.9239 28.2827 29.9618 28.1914C29.9996 28.1 30.0095 27.9995 29.9902 27.9025C29.9709 27.8056 29.9233 27.7165 29.8534 27.6466L28.3639 26.1566Z" fill="#4B73FF"/>
<path id="Vector_2" d="M16 19C17.6569 19 19 17.6569 19 16C19 14.3431 17.6569 13 16 13C14.3431 13 13 14.3431 13 16C13 17.6569 14.3431 19 16 19Z" fill="#F8D33A"/>
<path id="Vector_3" d="M24 14.901C24.0012 14.6732 23.924 14.4519 23.7815 14.2743C23.6389 14.0966 23.4396 13.9733 23.217 13.925L22.034 13.662L21.92 13.386L22.57 12.3645C22.6934 12.1729 22.7472 11.9447 22.7224 11.7182C22.6976 11.4916 22.5958 11.2805 22.434 11.12L20.88 9.56601C20.7195 9.40427 20.5084 9.30248 20.2819 9.27764C20.0554 9.2528 19.8272 9.3064 19.6355 9.42951L18.614 10.0795L18.338 9.96601L18.075 8.78301C18.0267 8.56043 17.9033 8.3612 17.7257 8.21867C17.548 8.07614 17.3268 7.99895 17.099 8.00001H14.901C14.6732 7.99895 14.452 8.07614 14.2744 8.21867C14.0967 8.3612 13.9734 8.56043 13.925 8.78301L13.662 9.96601L13.386 10.08L12.364 9.42951C12.1724 9.30626 11.9443 9.25257 11.7178 9.27741C11.4914 9.30226 11.2803 9.40415 11.12 9.56601L9.56501 11.1205C9.40367 11.2811 9.30226 11.4921 9.27769 11.7184C9.25312 11.9447 9.30689 12.1726 9.43001 12.364L10.08 13.386L9.96601 13.662L8.78301 13.925C8.56039 13.9733 8.36111 14.0966 8.21856 14.2743C8.07601 14.4519 7.99885 14.6732 8.00001 14.901V17.099C7.99885 17.3268 8.07601 17.5481 8.21856 17.7258C8.36111 17.9034 8.56039 18.0267 8.78301 18.075L9.96601 18.338L10.08 18.614L9.43001 19.6355C9.30666 19.8271 9.25286 20.0553 9.27762 20.2818C9.30238 20.5084 9.40419 20.7196 9.56601 20.88L11.12 22.434C11.2804 22.5959 11.4915 22.6978 11.7181 22.7227C11.9446 22.7475 12.1728 22.6938 12.3645 22.5705L13.386 21.9205L13.662 22.034L13.925 23.217C13.9734 23.4396 14.0967 23.6388 14.2744 23.7814C14.452 23.9239 14.6732 24.0011 14.901 24H17.099C17.3268 24.0011 17.548 23.9239 17.7257 23.7814C17.9033 23.6388 18.0267 23.4396 18.075 23.217L18.338 22.034L18.614 21.92L19.636 22.5705C19.8277 22.6936 20.0557 22.7472 20.2822 22.7223C20.5086 22.6975 20.7196 22.5957 20.88 22.434L22.435 20.8795C22.5964 20.7189 22.6978 20.5079 22.7223 20.2816C22.7469 20.0553 22.6931 19.8275 22.57 19.636L21.92 18.614L22.034 18.338L23.217 18.075C23.4396 18.0267 23.6389 17.9034 23.7815 17.7258C23.924 17.5481 24.0012 17.3268 24 17.099V14.901ZM16 20C15.2089 20 14.4355 19.7654 13.7777 19.3259C13.1199 18.8864 12.6072 18.2616 12.3045 17.5307C12.0017 16.7998 11.9225 15.9956 12.0769 15.2196C12.2312 14.4437 12.6122 13.731 13.1716 13.1716C13.731 12.6122 14.4437 12.2312 15.2197 12.0769C15.9956 11.9225 16.7998 12.0017 17.5307 12.3045C18.2617 12.6072 18.8864 13.1199 19.3259 13.7777C19.7654 14.4355 20 15.2089 20 16C19.9987 17.0605 19.5768 18.0771 18.827 18.827C18.0771 19.5768 17.0605 19.9987 16 20Z" fill="#F8D33A"/>
</g>
</g>
<defs>
<clipPath id="clip0_12258_4423">
<rect width="32" height="32" fill="white"/>
</clipPath>
</defs>
</svg>
