<svg width="32" height="32" viewBox="0 0 32 32" fill="none" xmlns="http://www.w3.org/2000/svg">
<g clip-path="url(#clip0_12257_4297)">
<path d="M7.5773 16.9393C3.43364 16.9393 0.0626221 20.3104 0.0626221 24.454C0.0626221 28.5975 3.43364 31.9686 7.5773 31.9686C11.7209 31.9686 15.092 28.5975 15.092 24.454C15.092 20.3104 11.7209 16.9393 7.5773 16.9393ZM10.3953 25.7638L7.5773 27.6424L4.7593 25.7638V23.1441L7.5773 21.2655L10.3953 23.1441V25.7638ZM21.6673 0.03125C15.9699 0.03125 11.3346 4.66649 11.3346 10.3639C11.3346 16.0614 15.9699 20.6966 21.6673 20.6966C27.3648 20.6966 32 16.0614 32 10.3639C32 4.66649 27.3648 0.03125 21.6673 0.03125ZM24.4853 7.54593H20.728V9.4246H24.4853V15.0606H22.6067V16.9393H20.728V15.0606H18.8493V13.1819H22.6067V11.3033H18.8493V5.66726H20.728V3.78859H22.6067V5.66726H24.4853V7.54593Z" fill="#4B73FF"/>
<path d="M1.87867 9.36185H6.51103L5.60595 10.7195L7.169 11.7615L9.39504 8.42252L7.169 5.0835L5.60595 6.12553L6.51103 7.48318H0V14.9979H1.87867V9.36185ZM24.4227 27.5849H19.7903L20.6954 26.2273L19.1324 25.1853L16.9063 28.5243L19.1324 31.8633L20.6954 30.8213L19.7903 29.4636H26.3014V21.9489H24.4227V27.5849Z" fill="#F8D33A"/>
</g>
<defs>
<clipPath id="clip0_12257_4297">
<rect width="32" height="32" fill="white"/>
</clipPath>
</defs>
</svg>
