<svg width="32" height="32" viewBox="0 0 32 32" fill="none" xmlns="http://www.w3.org/2000/svg">
<g id="Frame">
<g id="Group">
<path id="Vector" d="M16 2C8.28 2 2 8.28 2 16C2 23.72 8.28 30 16 30C23.72 30 30 23.72 30 16C30 8.28 23.72 2 16 2ZM16 26C10.49 26 6 21.51 6 16C6 10.49 10.49 6 16 6C21.51 6 26 10.49 26 16C26 21.51 21.51 26 16 26Z" fill="#4B73FF"/>
<path id="Vector_2" d="M16 8C11.59 8 8 11.59 8 16C8 20.41 11.59 24 16 24C20.41 24 24 20.41 24 16C24 11.59 20.41 8 16 8ZM20.24 17.27L19.09 17.9C18.59 18.17 18.18 18.58 17.9 19.09L17.27 20.24C17.01 20.7 16.53 20.99 16 20.99C15.47 20.99 14.99 20.7 14.73 20.24L14.1 19.09C13.82 18.58 13.41 18.17 12.91 17.9L11.76 17.27C11.29 17.02 11 16.53 11 16C11 15.47 11.29 14.98 11.76 14.73L12.91 14.1C13.41 13.83 13.82 13.42 14.1 12.91L14.73 11.76C14.99 11.3 15.47 11.01 16 11.01C16.53 11.01 17.01 11.3 17.27 11.76L17.9 12.91C18.18 13.41 18.59 13.83 19.09 14.1L20.24 14.73C20.71 14.98 21 15.47 21 16C21 16.53 20.71 17.02 20.24 17.27Z" fill="#F8D33A"/>
</g>
</g>
</svg>
