<svg width="24" height="24" viewBox="0 0 24 24" fill="none" xmlns="http://www.w3.org/2000/svg">
<g id="Iconsax/Bold/information">
<path id="Vector" d="M21.5599 10.738L20.2099 9.158C19.9599 8.858 19.7499 8.298 19.7499 7.898V6.198C19.7499 5.138 18.8799 4.268 17.8199 4.268H16.1199C15.7199 4.268 15.1499 4.058 14.8499 3.808L13.2699 2.458C12.5799 1.868 11.4499 1.868 10.7599 2.458L9.15988 3.808C8.85988 4.058 8.29988 4.268 7.89988 4.268H6.16988C5.10988 4.268 4.23988 5.138 4.23988 6.198V7.898C4.23988 8.288 4.03988 8.848 3.78988 9.148L2.43988 10.738C1.85988 11.438 1.85988 12.558 2.43988 13.238L3.78988 14.828C4.03988 15.118 4.23988 15.688 4.23988 16.078V17.788C4.23988 18.848 5.10988 19.718 6.16988 19.718H7.90988C8.29988 19.718 8.86988 19.928 9.16988 20.178L10.7499 21.528C11.4399 22.118 12.5699 22.118 13.2599 21.528L14.8399 20.178C15.1399 19.928 15.6999 19.718 16.0999 19.718H17.7999C18.8599 19.718 19.7299 18.848 19.7299 17.788V16.088C19.7299 15.688 19.9399 15.128 20.1899 14.828L21.5399 13.248C22.1499 12.568 22.1499 11.438 21.5599 10.738ZM11.2499 8.128C11.2499 7.718 11.5899 7.378 11.9999 7.378C12.4099 7.378 12.7499 7.718 12.7499 8.128V12.958C12.7499 13.368 12.4099 13.708 11.9999 13.708C11.5899 13.708 11.2499 13.368 11.2499 12.958V8.128ZM11.9999 16.868C11.4499 16.868 10.9999 16.418 10.9999 15.868C10.9999 15.318 11.4399 14.868 11.9999 14.868C12.5499 14.868 12.9999 15.318 12.9999 15.868C12.9999 16.418 12.5599 16.868 11.9999 16.868Z" fill="#FF9E2D"/>
</g>
</svg>
