<svg width="64" height="64" viewBox="0 0 64 64" fill="none" xmlns="http://www.w3.org/2000/svg">
<g id="Frame">
<g id="Group">
<path id="Vector" d="M4.00001 13.9999C4.0024 12.8531 4.39896 11.742 5.1232 10.8528C5.84745 9.96355 6.85536 9.35035 7.97798 9.11593C9.1006 8.88151 10.2697 9.04014 11.2892 9.56522C12.3088 10.0903 13.1169 10.9499 13.578 11.9999H19C19.3168 11.9999 19.629 12.0752 19.911 12.2195C20.193 12.3638 20.4367 12.573 20.622 12.8299L25.516 19.6059C24.3299 20.2298 23.2389 21.0197 22.276 21.9519L17.978 15.9999H13.578C13.12 17.0539 12.3126 17.9177 11.2919 18.4459C10.2713 18.974 9.09973 19.1341 7.9748 18.8992C6.84987 18.6643 5.84031 18.0487 5.11628 17.1563C4.39224 16.2639 3.998 15.1491 4.00001 13.9999ZM4.00001 31.9999C4.0024 30.8531 4.39896 29.742 5.1232 28.8528C5.84745 27.9636 6.85536 27.3503 7.97798 27.1159C9.1006 26.8815 10.2697 27.0401 11.2892 27.5652C12.3088 28.0903 13.1169 28.9499 13.578 29.9999H18.16C17.948 31.3248 17.948 32.675 18.16 33.9999H13.578C13.12 35.0539 12.3126 35.9177 11.2919 36.4459C10.2713 36.974 9.09973 37.1341 7.9748 36.8992C6.84987 36.6643 5.84031 36.0487 5.11628 35.1563C4.39224 34.2639 3.998 33.1491 4.00001 31.9999ZM27 8.99994C26.9992 8.09829 27.2422 7.21321 27.7033 6.43838C28.1644 5.66356 28.8264 5.02784 29.6193 4.59853C30.4122 4.16921 31.3064 3.96229 32.2072 3.99966C33.1081 4.03703 33.9821 4.3173 34.7367 4.81081C35.4913 5.30431 36.0984 5.99268 36.4937 6.80303C36.8891 7.61338 37.0579 8.51556 36.9824 9.41403C36.9069 10.3125 36.5899 11.1739 36.0649 11.9069C35.5398 12.6399 34.8264 13.2173 34 13.5779V18.1599C32.6751 17.948 31.3249 17.948 30 18.1599V13.5779C29.1087 13.1895 28.3502 12.5495 27.8173 11.7363C27.2844 10.9231 27.0004 9.97216 27 8.99994ZM38.486 19.6039L43.38 12.8279C43.5651 12.5714 43.8085 12.3626 44.0902 12.2186C44.3718 12.0747 44.6837 11.9997 45 11.9999H50.422C50.8801 10.946 51.6874 10.0821 52.7081 9.55402C53.7288 9.02591 54.9003 8.86581 56.0252 9.10071C57.1501 9.3356 58.1597 9.95114 58.8837 10.8436C59.6078 11.736 60.002 12.8507 60 13.9999C59.9976 15.1468 59.6011 16.2579 58.8768 17.1471C58.1526 18.0363 57.1446 18.6495 56.022 18.8839C54.8994 19.1184 53.7303 18.9597 52.7108 18.4347C51.6912 17.9096 50.8831 17.05 50.422 15.9999H46.022L41.724 21.9499C40.7622 21.0173 39.6718 20.2273 38.486 19.6039ZM60 49.9999C59.9976 51.1468 59.6011 52.2579 58.8768 53.1471C58.1526 54.0363 57.1446 54.6495 56.022 54.8839C54.8994 55.1184 53.7303 54.9597 52.7108 54.4347C51.6912 53.9096 50.8831 53.05 50.422 51.9999H45C44.6832 51.9999 44.371 51.9247 44.089 51.7804C43.807 51.6361 43.5633 51.4268 43.378 51.1699L38.484 44.3939C39.6701 43.7701 40.7611 42.9801 41.724 42.0479L46.022 47.9999H50.422C50.8801 46.946 51.6874 46.0821 52.7081 45.554C53.7288 45.0259 54.9003 44.8658 56.0252 45.1007C57.1501 45.3356 58.1597 45.9511 58.8837 46.8436C59.6078 47.736 60.002 48.8507 60 49.9999ZM25.514 44.3959L20.62 51.1719C20.4349 51.4284 20.1915 51.6373 19.9098 51.7812C19.6282 51.9252 19.3163 52.0002 19 51.9999H13.578C13.12 53.0539 12.3126 53.9177 11.2919 54.4459C10.2713 54.974 9.09973 55.1341 7.9748 54.8992C6.84987 54.6643 5.84031 54.0487 5.11628 53.1563C4.39224 52.2639 3.998 51.1491 4.00001 49.9999C4.0024 48.8531 4.39896 47.742 5.1232 46.8528C5.84745 45.9636 6.85536 45.3503 7.97798 45.1159C9.1006 44.8815 10.2697 45.0401 11.2892 45.5652C12.3088 46.0903 13.1169 46.9499 13.578 47.9999H17.978L22.276 42.0499C23.234 42.9779 24.322 43.7699 25.514 44.3959ZM60 31.9999C59.9976 33.1468 59.6011 34.2579 58.8768 35.1471C58.1526 36.0363 57.1446 36.6495 56.022 36.8839C54.8994 37.1184 53.7303 36.9597 52.7108 36.4347C51.6912 35.9096 50.8831 35.05 50.422 33.9999H45.84C46.052 32.675 46.052 31.3248 45.84 29.9999H50.422C50.8801 28.946 51.6874 28.0821 52.7081 27.554C53.7288 27.0259 54.9003 26.8658 56.0252 27.1007C57.1501 27.3356 58.1597 27.9511 58.8837 28.8436C59.6078 29.736 60.002 30.8507 60 31.9999ZM37 54.9999C37.0008 55.9016 36.7578 56.7867 36.2967 57.5615C35.8356 58.3363 35.1736 58.972 34.3807 59.4013C33.5879 59.8307 32.6936 60.0376 31.7928 60.0002C30.8919 59.9628 30.0179 59.6826 29.2633 59.1891C28.5087 58.6956 27.9016 58.0072 27.5063 57.1968C27.1109 56.3865 26.9421 55.4843 27.0176 54.5858C27.0931 53.6874 27.4101 52.826 27.9351 52.093C28.4602 51.36 29.1736 50.7826 30 50.4219V45.8399C31.3249 46.0519 32.6751 46.0519 34 45.8399V50.4219C34.8913 50.8104 35.6498 51.4504 36.1827 52.2636C36.7156 53.0767 36.9996 54.0277 37 54.9999Z" fill="#4B73FF"/>
<path id="Vector_2" d="M43 32C43 34.9174 41.8411 37.7153 39.7782 39.7782C37.7153 41.8411 34.9174 43 32 43C29.0826 43 26.2847 41.8411 24.2218 39.7782C22.1589 37.7153 21 34.9174 21 32C21 29.0826 22.1589 26.2847 24.2218 24.2218C26.2847 22.1589 29.0826 21 32 21C34.9174 21 37.7153 22.1589 39.7782 24.2218C41.8411 26.2847 43 29.0826 43 32Z" fill="#F8D33A"/>
</g>
</g>
</svg>
