<svg width="64" height="64" viewBox="0 0 64 64" fill="none" xmlns="http://www.w3.org/2000/svg">
<g id="Frame" clip-path="url(#clip0_12258_4326)">
<g id="Group">
<path id="Vector" d="M61.3355 60.573H57.0175C57.0175 60.5044 57.086 60.4359 57.086 60.3673C57.0175 55.9122 53.4533 52.3481 48.9982 52.4166C45.7768 52.4166 42.898 54.4043 41.6643 57.3515C39.5395 57.6257 37.5519 58.7909 36.3181 60.573H29.6011C28.5045 58.5853 26.4482 57.4201 24.2549 57.4201H24.1864C22.9527 53.856 19.0458 51.9368 15.4817 53.2391C14.3165 53.6503 13.2199 54.4043 12.3974 55.3639L11.0951 55.2268C7.87367 55.2268 4.99496 57.4201 4.17247 60.573H2.66457C1.705 60.573 0.95105 61.3269 0.95105 62.2865C0.95105 63.2461 1.705 64 2.66457 64H61.3355C62.2951 64 63.049 63.2461 63.049 62.2865C63.049 61.3269 62.2951 60.573 61.3355 60.573ZM47.6274 25.4801C46.4622 24.3149 45.0228 23.4238 43.4464 22.8755C43.2407 17.4608 41.6643 12.1831 38.7856 7.52236C38.58 7.04257 35.0158 2.24471 33.2338 0.462651C32.5484 -0.154217 31.4517 -0.154217 30.7663 0.462651C24.3235 6.97403 20.8279 14.5821 20.5537 22.8755C18.9773 23.4238 17.5379 24.3149 16.3727 25.4801C12.0547 29.4554 11.712 36.1724 15.6873 40.559C15.9615 40.9017 16.3727 41.1074 16.8525 41.1074H16.9211C17.3323 41.1074 17.8121 40.9703 18.0863 40.6276L22.747 36.378C23.7066 38.8455 24.8718 41.2444 26.3797 43.4378C27.7505 45.494 31.2461 45.6996 32.2742 45.6996H32.3428C33.7821 45.6996 36.2496 45.4254 37.4148 43.7805C38.9912 41.5186 40.2935 38.9826 41.2531 36.378L45.9138 40.6276C46.188 40.9703 46.6678 41.1074 47.079 41.1074H47.1476C47.6274 41.1074 48.0386 40.9017 48.3128 40.559C52.2881 36.1724 51.9454 29.4554 47.6274 25.4801ZM32 26.5082C28.7786 26.4396 26.1741 23.8351 26.1741 20.6137C26.1741 17.3922 28.7786 14.7877 32 14.7877C35.2215 14.7877 37.826 17.3922 37.826 20.6137C37.826 23.8351 35.2215 26.4396 32 26.5082Z" fill="#4B73FF"/>
<path id="Vector_2" d="M30.2865 48.167H33.7135V56.1863H30.2865V48.167ZM35.9068 46.8647H39.3339V54.1986H35.9068V46.8647ZM24.6661 46.8647H28.0932V53.5818H24.6661V46.8647Z" fill="#F8D33A"/>
</g>
</g>
<defs>
<clipPath id="clip0_12258_4326">
<rect width="64" height="64" fill="white"/>
</clipPath>
</defs>
</svg>
