<svg width="64" height="64" viewBox="0 0 64 64" fill="none" xmlns="http://www.w3.org/2000/svg">
<g id="Frame">
<g id="Group">
<path id="Vector" d="M10.7733 18.2C14.5141 18.2 17.5467 15.1675 17.5467 11.4267C17.5467 7.68584 14.5141 4.65332 10.7733 4.65332C7.03253 4.65332 4 7.68584 4 11.4267C4 15.1675 7.03253 18.2 10.7733 18.2Z" fill="#4B73FF"/>
<path id="Vector_2" d="M10.7733 38.7732C14.5141 38.7732 17.5467 35.7407 17.5467 31.9999C17.5467 28.2591 14.5141 25.2266 10.7733 25.2266C7.03253 25.2266 4 28.2591 4 31.9999C4 35.7407 7.03253 38.7732 10.7733 38.7732Z" fill="#4B73FF"/>
<path id="Vector_3" d="M10.7733 59.3467C14.5141 59.3467 17.5467 56.3142 17.5467 52.5734C17.5467 48.8326 14.5141 45.8 10.7733 45.8C7.03253 45.8 4 48.8326 4 52.5734C4 56.3142 7.03253 59.3467 10.7733 59.3467Z" fill="#4B73FF"/>
<path id="Vector_4" d="M31.9999 18.2C35.7407 18.2 38.7732 15.1675 38.7732 11.4267C38.7732 7.68584 35.7407 4.65332 31.9999 4.65332C28.2591 4.65332 25.2266 7.68584 25.2266 11.4267C25.2266 15.1675 28.2591 18.2 31.9999 18.2Z" fill="#4B73FF"/>
<path id="Vector_5" d="M31.9999 38.7732C35.7407 38.7732 38.7732 35.7407 38.7732 31.9999C38.7732 28.2591 35.7407 25.2266 31.9999 25.2266C28.2591 25.2266 25.2266 28.2591 25.2266 31.9999C25.2266 35.7407 28.2591 38.7732 31.9999 38.7732Z" fill="#4B73FF"/>
<path id="Vector_6" d="M31.9999 59.3467C35.7407 59.3467 38.7732 56.3142 38.7732 52.5734C38.7732 48.8326 35.7407 45.8 31.9999 45.8C28.2591 45.8 25.2266 48.8326 25.2266 52.5734C25.2266 56.3142 28.2591 59.3467 31.9999 59.3467Z" fill="#F8D33A"/>
<path id="Vector_7" d="M53.2267 18.2C56.9675 18.2 60 15.1675 60 11.4267C60 7.68584 56.9675 4.65332 53.2267 4.65332C49.4859 4.65332 46.4534 7.68584 46.4534 11.4267C46.4534 15.1675 49.4859 18.2 53.2267 18.2Z" fill="#4B73FF"/>
<path id="Vector_8" d="M53.2267 38.7732C56.9675 38.7732 60 35.7407 60 31.9999C60 28.2591 56.9675 25.2266 53.2267 25.2266C49.4859 25.2266 46.4534 28.2591 46.4534 31.9999C46.4534 35.7407 49.4859 38.7732 53.2267 38.7732Z" fill="#F8D33A"/>
<path id="Vector_9" d="M53.2267 59.3467C56.9675 59.3467 60 56.3142 60 52.5734C60 48.8326 56.9675 45.8 53.2267 45.8C49.4859 45.8 46.4534 48.8326 46.4534 52.5734C46.4534 56.3142 49.4859 59.3467 53.2267 59.3467Z" fill="#F8D33A"/>
</g>
</g>
</svg>
