<svg width="64" height="64" viewBox="0 0 64 64" fill="none" xmlns="http://www.w3.org/2000/svg">
<g id="Frame">
<g id="Group">
<path id="Vector" d="M30 24C30 20.6 27.4 18 24 18H16C12.6 18 10 20.6 10 24V26H30V24Z" fill="#4B73FF"/>
<path id="Vector_2" d="M20 18C23.3137 18 26 15.3137 26 12C26 8.68629 23.3137 6 20 6C16.6863 6 14 8.68629 14 12C14 15.3137 16.6863 18 20 18Z" fill="#4B73FF"/>
<path id="Vector_3" d="M46 32C46 27.6 42.4 24 38 24C35 24 32.4 25.6 31.2 28H10.4C10.2 28 9.8 28 9.6 28.2L5.8 30H25C25.6 30 26 30.4 26 31C26 31.6 25.6 32 25 32H4C4 32.6 4.2 33 4.6 33.4L10 36H12L13 37.4C13.4 38.2 14.6 38.2 15 37.4L16 36L17 37.4C17.4 38.2 18.6 38.2 19 37.4L20 36L21 37.4C21.4 38.2 22.6 38.2 23 37.4L24 36H31.2C32.6 38.4 35.2 40 38 40C42.4 40 46 36.4 46 32ZM38 36C35.8 36 34 34.2 34 32C34 29.8 35.8 28 38 28C40.2 28 42 29.8 42 32C42 34.2 40.2 36 38 36ZM55.8 24H59.8C59.6 21.2 59.4 18.4 59 16H55C55.4 18.8 55.6 21.6 55.8 24ZM54.6 14H58.6C58.2 11.6 57.6 9.6 57 8H53C53.8 9.8 54.2 11.8 54.6 14ZM55 48H59C59.4 45.6 59.6 42.8 59.8 40H55.8C55.6 42.4 55.4 45.2 55 48ZM51.2 60H54C54.8 60 55.6 59.2 56.2 58H52.4C52 58.8 51.6 59.4 51.2 60ZM56.2 6C55.6 4.8 54.8 4 54 4H51.2C51.6 4.6 52 5.2 52.4 6H56.2ZM53.2 56H57.2C57.8 54.4 58.2 52.4 58.8 50H54.8C54.2 52.2 53.8 54.2 53.2 56ZM59.8 26H55.8C56 29 56 31.2 56 32C56 32.8 56 35 55.8 38H59.8C59.8 36 60 34 60 32C60 30 60 28 59.8 26Z" fill="#F8D33A"/>
<path id="Vector_4" d="M47.9999 4C45.3999 4 43.1999 12 42.3999 23C45.5999 24.6 47.9999 28 47.9999 32C47.9999 36 45.5999 39.4 42.3999 41C43.1999 52 45.3999 60 47.9999 60C51.3999 60 53.9999 47.4 53.9999 32C53.9999 16.6 51.3999 4 47.9999 4Z" fill="#4B73FF"/>
</g>
</g>
</svg>
