<svg width="64" height="64" viewBox="0 0 64 64" fill="none" xmlns="http://www.w3.org/2000/svg">
<g id="Frame" clip-path="url(#clip0_12258_4336)">
<g id="Group">
<path id="Vector" d="M41.4639 19.3333H22.5306C20.7666 19.3333 19.3306 20.7693 19.3306 22.5333V41.4666C19.3306 43.2306 20.7666 44.6666 22.5306 44.6666H41.4639C43.2279 44.6666 44.6639 43.2306 44.6639 41.4666V22.5333C44.6639 20.7693 43.2279 19.3333 41.4639 19.3333ZM31.8639 37.8666H29.1972C28.9143 37.8666 28.643 37.7542 28.443 37.5542C28.2429 37.3541 28.1306 37.0828 28.1306 36.7999V33.5999C28.1306 33.4585 28.0744 33.3228 27.9744 33.2228C27.8743 33.1228 27.7387 33.0666 27.5972 33.0666H27.3668C26.7986 33.0666 26.3026 32.6375 26.2662 32.0705C26.2565 31.9247 26.2768 31.7786 26.326 31.6411C26.3751 31.5036 26.4519 31.3776 26.5517 31.271C26.6515 31.1644 26.7721 31.0794 26.9061 31.0213C27.0401 30.9632 27.1845 30.9332 27.3306 30.9333H27.5972C27.7387 30.9333 27.8743 30.8771 27.9744 30.777C28.0744 30.677 28.1306 30.5414 28.1306 30.3999V27.1999C28.1306 26.917 28.2429 26.6457 28.443 26.4457C28.643 26.2456 28.9143 26.1333 29.1972 26.1333H31.7599C35.0423 26.1333 37.7856 28.8194 37.7298 32.1014C37.6754 35.2894 35.0647 37.8666 31.8639 37.8666Z" fill="#4B73FF"/>
<path id="Vector_2" d="M35.5956 32.1129C35.5354 34.1436 33.8161 35.7334 31.7846 35.7334H30.7973C30.6558 35.7334 30.5202 35.6772 30.4202 35.5772C30.3201 35.4772 30.264 35.3415 30.264 35.2001V33.6001C30.264 33.4586 30.3201 33.323 30.4202 33.223C30.5202 33.1229 30.6558 33.0668 30.7973 33.0668H31.0277C31.596 33.0668 32.092 32.6377 32.1284 32.0706C32.138 31.9249 32.1177 31.7788 32.0686 31.6412C32.0195 31.5037 31.9426 31.3777 31.8428 31.2711C31.743 31.1645 31.6224 31.0795 31.4884 31.0214C31.3545 30.9633 31.21 30.9334 31.064 30.9334H30.7973C30.6558 30.9334 30.5202 30.8772 30.4202 30.7772C30.3201 30.6772 30.264 30.5415 30.264 30.4001V28.8001C30.264 28.6586 30.3201 28.523 30.4202 28.423C30.5202 28.3229 30.6558 28.2668 30.7973 28.2668H31.864C33.9601 28.2668 35.6581 30.0029 35.5956 32.1129ZM54.264 26.7677V37.2338C54.264 37.8142 54.7404 38.2708 55.3209 38.2702C55.9561 38.2697 56.3973 37.7886 56.3973 37.234V26.768C56.3973 26.197 55.9356 25.7305 55.3646 25.7321L55.3048 25.732C54.7305 25.7286 54.264 26.1934 54.264 26.7677ZM38.5941 10.1055L47.6612 15.3385C48.1576 15.625 48.7932 15.4549 49.0772 14.957C49.4306 14.3375 49.1725 13.7475 48.7274 13.4907L39.6605 8.25782C39.1653 7.97208 38.5305 8.14008 38.2462 8.63608C37.8906 9.25662 38.148 9.84808 38.5941 10.1055ZM33.064 47.8361V50.6985C33.064 50.8347 33.0372 50.9696 32.9849 51.0954C32.9327 51.2213 32.8562 51.3355 32.7597 51.4317C32.6632 51.5278 32.5486 51.604 32.4226 51.6558C32.2966 51.7076 32.1617 51.7339 32.0254 51.7334C32.0049 51.7333 31.9844 51.7333 31.964 51.7334C31.3929 51.7361 30.9306 51.2693 30.9306 50.6982V47.8361C30.9306 47.5613 31.0398 47.2978 31.2341 47.1035C31.4284 46.9092 31.6919 46.8001 31.9666 46.8001C32.668 46.8001 33.064 47.3123 33.064 47.8361ZM49.1029 41.8393L49.0724 41.8921C48.7889 42.388 48.154 42.5554 47.6592 42.2699L47.3158 42.0718C47.1582 41.981 47.0274 41.8503 46.9364 41.6929C46.8455 41.5354 46.7976 41.3567 46.7977 41.1749C46.798 40.2299 47.7038 39.8328 48.3517 40.2069L48.7256 40.4228C49.2218 40.7094 49.3914 41.3442 49.1029 41.8393ZM33.064 13.3023V16.1641C33.064 16.3001 33.0372 16.4348 32.9851 16.5605C32.933 16.6862 32.8567 16.8004 32.7605 16.8966C32.6643 16.9928 32.5501 17.0692 32.4244 17.1212C32.2987 17.1733 32.164 17.2001 32.028 17.2001C31.3265 17.2001 30.9306 16.6878 30.9306 16.1641V13.3023C30.9306 12.7226 31.4064 12.2663 31.9861 12.2667C32.6296 12.2673 33.064 12.7537 33.064 13.3023ZM46.7976 22.8239C46.7977 22.6423 46.8457 22.4639 46.9367 22.3066C47.0276 22.1494 47.1584 22.0189 47.3158 21.9282L47.6589 21.7302C48.1605 21.4407 48.7928 21.624 49.0826 22.1254C49.4034 22.6805 49.2016 23.3017 48.7248 23.577L48.3516 23.7925C47.7022 24.1671 46.7972 23.7688 46.7976 22.8239ZM47.6612 48.6615L38.5941 53.8945C38.0974 54.1812 37.927 54.8169 38.2162 55.312C38.576 55.9276 39.2157 55.9989 39.6605 55.7421L48.7274 50.5091C49.2228 50.2233 49.3948 49.5891 49.107 49.0947C48.7477 48.4771 48.1072 48.4042 47.6612 48.6615ZM16.3334 15.3386L25.4005 10.1055C25.8972 9.81888 26.0676 9.18315 25.7784 8.68808C25.4186 8.07248 24.7789 8.00115 24.3341 8.25795L15.2672 13.4909C14.7718 13.7767 14.5998 14.4109 14.8876 14.9053C15.2469 15.523 15.8874 15.5959 16.3334 15.3386ZM7.59729 26.768V37.234C7.59729 37.8137 8.07262 38.2706 8.65236 38.2702C9.29476 38.2698 9.73062 37.7837 9.73062 37.2338V26.7677C9.7307 26.6312 9.70377 26.496 9.65141 26.37C9.59904 26.2439 9.52226 26.1295 9.42549 26.0332C9.32872 25.937 9.21387 25.8608 9.08754 25.8091C8.96122 25.7574 8.82592 25.7312 8.68942 25.732L8.62942 25.7321C8.05876 25.7304 7.59729 26.1972 7.59729 26.768ZM25.4005 53.8946L16.3334 48.6617C15.837 48.3752 15.2014 48.5453 14.9174 49.0431C14.564 49.6626 14.8221 50.2526 15.2672 50.5094L24.3341 55.7423C24.8293 56.0281 25.4641 55.8601 25.7484 55.3641C26.104 54.7436 25.8466 54.1521 25.4005 53.8946ZM17.1968 22.8252C17.1965 23.76 16.2968 24.1697 15.6429 23.7923L15.27 23.5772C14.7672 23.287 14.6104 22.646 14.9016 22.1438C15.2221 21.5912 15.8594 21.4555 16.3357 21.7305L16.6785 21.9284C16.8361 22.0191 16.967 22.1497 17.058 22.3072C17.149 22.4646 17.1969 22.6433 17.1968 22.8252ZM16.6786 42.072L16.3356 42.2699C15.8398 42.5559 15.2053 42.3865 14.9212 41.8897L14.8906 41.8369C14.6025 41.3429 14.774 40.7086 15.2693 40.4226L15.6429 40.2069C16.2908 39.8329 17.1966 40.228 17.1969 41.1744C17.197 41.3563 17.1491 41.5351 17.0581 41.6927C16.9671 41.8502 16.8363 41.9811 16.6786 42.072Z" fill="#F8D33A"/>
<g id="Union">
<path d="M37.064 5.06667C37.064 7.86491 34.7956 10.1333 31.9973 10.1333C29.1991 10.1333 26.9307 7.86491 26.9307 5.06667C26.9307 2.26842 29.1991 0 31.9973 0C34.7956 0 37.064 2.26842 37.064 5.06667Z" fill="#4B73FF"/>
<path d="M35.5956 32.1127C35.5355 34.1434 33.8161 35.7332 31.7847 35.7332H30.7973C30.6559 35.7332 30.5202 35.677 30.4202 35.577C30.3202 35.477 30.264 35.3413 30.264 35.1999V33.5999C30.264 33.4584 30.3202 33.3228 30.4202 33.2228C30.5202 33.1228 30.6559 33.0666 30.7973 33.0666H31.0277C31.596 33.0666 32.092 32.6375 32.1284 32.0704C32.1381 31.9247 32.1177 31.7786 32.0686 31.6411C32.0195 31.5035 31.9427 31.3776 31.8429 31.2709C31.7431 31.1643 31.6225 31.0793 31.4885 31.0212C31.3545 30.9632 31.21 30.9332 31.064 30.9332H30.7973C30.6559 30.9332 30.5202 30.877 30.4202 30.777C30.3202 30.677 30.264 30.5413 30.264 30.3999V28.7999C30.264 28.6584 30.3202 28.5228 30.4202 28.4228C30.5202 28.3228 30.6559 28.2666 30.7973 28.2666H31.864C33.9601 28.2666 35.6581 30.0027 35.5956 32.1127Z" fill="#4B73FF"/>
<path d="M57.8556 41.0787C55.4363 39.6818 52.3313 40.5138 50.9344 42.9332C49.5375 45.3527 50.3693 48.4575 52.7889 49.8544C55.2237 51.2602 58.3223 50.4038 59.7101 47.9999C61.1071 45.5804 60.2751 42.4756 57.8556 41.0787Z" fill="#4B73FF"/>
<path d="M11.2057 14.1454C8.78625 12.7484 5.68132 13.5804 4.28452 15.9999C2.88759 18.4194 3.71959 21.5242 6.13905 22.9211C8.57385 24.327 11.6723 23.4704 13.0603 21.0666C14.4572 18.6471 13.6252 15.5423 11.2057 14.1454Z" fill="#4B73FF"/>
<path d="M6.13905 41.0787C3.71959 42.4756 2.88759 45.5804 4.28452 47.9999C5.22199 49.6235 6.92852 50.5323 8.68092 50.5323C12.5561 50.5323 15.0081 46.307 13.0603 42.9332C11.6633 40.5138 8.55839 39.6818 6.13905 41.0787Z" fill="#4B73FF"/>
<path d="M55.3308 23.599C59.2057 23.599 61.6576 19.3731 59.7101 15.9999C58.3132 13.5804 55.2084 12.7484 52.7889 14.1454C50.3695 15.5424 49.5375 18.6472 50.9344 21.0666C51.8719 22.6903 53.5784 23.599 55.3308 23.599Z" fill="#4B73FF"/>
<path d="M31.9973 64C34.7956 64 37.064 61.7316 37.064 58.9334C37.064 56.1351 34.7956 53.8667 31.9973 53.8667C29.1991 53.8667 26.9307 56.1351 26.9307 58.9334C26.9307 61.7316 29.1991 64 31.9973 64Z" fill="#4B73FF"/>
</g>
</g>
</g>
<defs>
<clipPath id="clip0_12258_4336">
<rect width="64" height="64" fill="white"/>
</clipPath>
</defs>
</svg>
