<svg width="64" height="64" viewBox="0 0 64 64" fill="none" xmlns="http://www.w3.org/2000/svg">
<g id="Frame">
<g id="Group">
<path id="Vector" d="M48.1501 56.8375C48.1501 59.125 46.3 60.975 44.0126 60.975H20.55C18.2625 60.975 16.4125 59.125 16.4125 56.8375V54.4625C16.4125 48.0875 21.0875 42.7125 27.3125 41.7625C29.9125 44.225 34.6625 44.225 37.25 41.7625C43.4875 42.7125 48.1501 48.0875 48.1501 54.4625V56.8375ZM32.2751 27.6C35.8125 27.6 38.6875 30.475 38.6875 34.0125C38.7626 39.4625 32.025 42.45 28.05 38.825C23.65 35.0375 26.3876 27.5625 32.2751 27.6ZM16.975 60.9875H4.07505C2.18755 60.9875 0.675049 59.4625 0.675049 57.5875V55.625C0.675049 50.325 4.56255 45.9375 9.63755 45.175C11.7625 47.2125 15.6875 47.2125 17.8125 45.175C18.025 45.2125 18.225 45.25 18.425 45.3C16.25 47.8625 15.05 51.0875 15.05 54.475V56.85C15.075 58.5 15.8125 59.9875 16.975 60.9875ZM13.7375 33.5125C16.65 33.5125 19.0126 35.875 19.0126 38.7875C19.0751 43.275 13.5375 45.7375 10.2625 42.75C6.63755 39.6375 8.88755 33.4875 13.7375 33.5125ZM63.875 55.625V57.5875C63.875 59.475 62.3501 60.9875 60.4626 60.9875H47.5751C48.7375 59.9875 49.475 58.5 49.475 56.85V54.475C49.475 51.0875 48.275 47.85 46.1 45.2875C46.3 45.25 46.5126 45.2 46.7126 45.175C48.8501 47.2125 52.7626 47.2125 54.8876 45.175C59.9875 45.95 63.875 50.325 63.875 55.625ZM50.8125 33.5125C53.725 33.5125 56.0876 35.875 56.0876 38.7875C56.1501 43.275 50.6126 45.7375 47.3376 42.75C43.7251 39.6375 45.975 33.4875 50.8125 33.5125Z" fill="#4B73FF"/>
<path id="Vector_2" d="M40.8001 29.6501H50.8126C61.9251 29.4376 64.6126 14.5126 54.5251 10.3126C44.6751 6.5376 36.5001 18.2876 43.2501 26.1876C42.4376 27.3376 41.6126 28.5001 40.8001 29.6501ZM55.3876 17.8001C57.8001 17.8626 57.8001 21.4001 55.3876 21.4626C52.9626 21.4001 52.9626 17.8626 55.3876 17.8001ZM50.8251 17.8001C53.2376 17.8626 53.2376 21.4001 50.8251 21.4626C48.4001 21.4001 48.4001 17.8626 50.8251 17.8001ZM46.2501 17.8001C48.6626 17.8626 48.6626 21.4001 46.2501 21.4626C43.8376 21.4001 43.8376 17.8626 46.2501 17.8001ZM12.5751 28.0501H25.0626C24.0501 26.6126 23.0251 25.1751 22.0126 23.7376C30.4751 13.9001 20.1626 -0.812396 7.93759 3.9251C-4.64991 9.1126 -1.26241 27.8251 12.5751 28.0501ZM18.2751 13.4376C21.0626 13.5126 21.0626 17.5876 18.2751 17.6626C15.4876 17.5751 15.4876 13.5126 18.2751 13.4376ZM12.5751 13.4376C15.3626 13.5126 15.3626 17.5876 12.5751 17.6626C9.80009 17.5876 9.78759 13.5001 12.5751 13.4376ZM6.87509 13.4376C9.65009 13.5126 9.65009 17.5876 6.87509 17.6626C4.08759 17.5751 4.08759 13.5126 6.87509 13.4376Z" fill="#F8D33A"/>
</g>
</g>
</svg>
