<svg width="112" height="40" viewBox="0 0 112 40" fill="none" xmlns="http://www.w3.org/2000/svg">
<g id="Company logo" clip-path="url(#clip0_12243_1832)">
<path id="Vector" d="M12.7792 5H0.583374V34.1667L12.7792 5Z" fill="#8A8C8D"/>
<path id="Vector_2" d="M21.3601 5H33.54V34.1667L21.3601 5Z" fill="#8A8C8D"/>
<path id="Vector_3" d="M17.0697 15.7498L24.8321 34.1667H19.7393L17.4193 28.3032H11.7385L17.0697 15.7498Z" fill="#8A8C8D"/>
<path id="Vector_4" d="M53.4364 23.5481L54.8745 27.6716C54.9221 27.7749 54.9936 27.8226 55.1208 27.8226H57.8857C58.0366 27.8226 58.0605 27.7511 58.0366 27.6001L52.3241 11.7337C52.3002 11.6065 52.2764 11.5827 52.1493 11.5827H48.717C48.6216 11.5827 48.566 11.6542 48.566 11.7575C48.5183 12.5917 48.4468 12.846 48.3435 13.0923L43.2507 27.5763C43.2269 27.7511 43.2825 27.8226 43.4255 27.8226H45.8964C46.0474 27.8226 46.1189 27.7749 46.1745 27.624L47.5331 23.5481H53.4364ZM48.3197 20.8547C49.0666 18.5983 50.0518 15.7062 50.449 14.0536H50.4729C50.9655 15.7857 52.1254 19.218 52.6498 20.8547H48.3197Z" fill="#8A8C8D"/>
<path id="Vector_5" d="M65.3806 28.0689C66.8664 28.0689 68.4475 27.7988 70.0524 27.1076C70.1795 27.0599 70.2033 27.0043 70.2033 26.8851C70.1557 26.4402 70.1001 25.7966 70.1001 25.304V10.3671C70.1001 10.2718 70.1001 10.2241 69.9809 10.2241H67.2875C67.1842 10.2241 67.1365 10.2718 67.1365 10.3989V15.46C66.7154 15.4123 66.4214 15.3885 66.0719 15.3885C61.7258 15.3885 59.0563 18.2567 59.0563 21.8399C59.0563 25.9953 61.7974 28.0689 65.3806 28.0689ZM67.1365 25.304C66.6916 25.447 66.199 25.5027 65.6984 25.5027C63.728 25.5027 62.1152 24.3903 62.1152 21.689C62.1152 19.2975 63.7757 17.8833 65.9765 17.8833C66.4214 17.8833 66.8108 17.9309 67.1365 18.058V25.304Z" fill="#8A8C8D"/>
<path id="Vector_6" d="M78.7957 15.3884C75.0853 15.3884 72.7892 18.2328 72.7892 21.7446C72.7892 24.8829 74.6166 28.0689 78.7401 28.0689C82.228 28.0689 84.6751 25.5026 84.6751 21.6651C84.6751 18.2805 82.6014 15.3884 78.7957 15.3884ZM78.6448 17.8832C80.7423 17.8832 81.6321 19.6868 81.6321 21.7446C81.6321 24.287 80.3212 25.5503 78.7957 25.5503C76.9127 25.5503 75.8004 23.9692 75.8004 21.6889C75.8004 19.3451 76.9842 17.8832 78.6448 17.8832Z" fill="#8A8C8D"/>
<path id="Vector_7" d="M87.4598 10.2241C87.3565 10.2241 87.285 10.2718 87.285 10.3989V27.3062C87.285 27.3777 87.3565 27.5048 87.4598 27.5287C88.6437 27.8941 89.8831 28.0689 91.1623 28.0689C94.825 28.0689 98.3844 25.7966 98.3844 21.2202C98.3844 17.9071 96.1121 15.3885 92.5527 15.3885C91.7343 15.3885 90.9716 15.5156 90.3042 15.7381L90.2724 10.4227C90.2724 10.248 90.2247 10.2241 90.0499 10.2241H87.4598ZM95.3414 21.5221C95.3414 24.2632 93.4664 25.5503 91.4403 25.5503C91.0193 25.5503 90.6458 25.5265 90.3042 25.4232V18.209C90.6935 18.058 91.1623 17.9309 92.0283 17.9309C93.9828 17.9309 95.3414 19.1704 95.3414 21.5221Z" fill="#8A8C8D"/>
<path id="Vector_8" d="M108.436 22.4119C109.644 22.4119 110.637 22.3881 110.979 22.3087C111.106 22.2848 111.153 22.2372 111.177 22.1339C111.249 21.8637 111.28 21.2996 111.28 20.6084C111.28 18.2566 109.866 15.3884 106.211 15.3884C102.477 15.3884 100.404 18.4314 100.404 21.8637C100.404 24.9067 102.008 28.0689 106.505 28.0689C108.19 28.0689 109.278 27.7988 110.216 27.3538C110.311 27.3062 110.359 27.2267 110.359 27.0837V25.0259C110.359 24.9067 110.287 24.8829 110.216 24.9306C109.278 25.3278 108.261 25.5265 107.149 25.5265C104.63 25.5265 103.486 24.136 103.415 22.4119H108.436ZM103.415 20.2826C103.613 19.075 104.376 17.764 106.084 17.764C107.967 17.764 108.46 19.3451 108.46 20.0602C108.46 20.084 108.46 20.1873 108.46 20.2588C108.357 20.2826 108.039 20.2826 107.101 20.2826H103.415Z" fill="#8A8C8D"/>
</g>
<defs>
<clipPath id="clip0_12243_1832">
<rect width="110.833" height="40" fill="white" transform="translate(0.583374)"/>
</clipPath>
</defs>
</svg>
