<svg width="150" height="40" viewBox="0 0 150 40" fill="none" xmlns="http://www.w3.org/2000/svg">
<g id="Company logo" clip-path="url(#clip0_12243_1848)">
<path id="Vector" d="M6.20657 18.3612C6.15274 18.2908 6.08165 18.2354 6.00017 18.2005C5.91868 18.1656 5.82957 18.1523 5.74143 18.1618C5.6533 18.1714 5.56913 18.2036 5.49705 18.2552C5.42497 18.3068 5.36743 18.3761 5.32998 18.4565L0.888191 27.3373C0.847727 27.4182 0.828622 27.5082 0.83269 27.5986C0.836758 27.689 0.863864 27.7768 0.911435 27.8538C0.959005 27.9308 1.02546 27.9943 1.10449 28.0384C1.18352 28.0824 1.27251 28.1056 1.363 28.1056H7.54796C7.64702 28.1079 7.74462 28.0814 7.8289 28.0293C7.91319 27.9772 7.98054 27.9017 8.02277 27.8121C9.35694 25.0552 8.54839 20.8633 6.20657 18.3612Z" fill="#8A8C8D"/>
<path id="Vector_2" d="M9.46422 10.2837C8.35745 11.9866 7.71247 13.9481 7.59257 15.9756C7.47268 18.003 7.88199 20.0268 8.78033 21.8484L11.7622 27.8121C11.8063 27.9002 11.874 27.9744 11.9579 28.0262C12.0417 28.0781 12.1384 28.1055 12.237 28.1055H18.4208C18.5113 28.1055 18.6003 28.0824 18.6793 28.0383C18.7584 27.9943 18.8248 27.9307 18.8724 27.8537C18.92 27.7768 18.9471 27.6889 18.9511 27.5985C18.9552 27.5081 18.9361 27.4182 18.8956 27.3372C18.8956 27.3372 10.5763 10.6966 10.3672 10.2803C10.3258 10.1956 10.2615 10.1243 10.1814 10.0745C10.1014 10.0247 10.0089 9.99843 9.91466 9.99878C9.82039 9.99913 9.72813 10.026 9.64845 10.0764C9.56878 10.1268 9.50493 10.1987 9.46422 10.2837Z" fill="#8A8C8D"/>
<path id="Vector_3" d="M81.998 17.4043C81.998 19.6034 83.0181 21.3494 87.0084 22.1201C89.3891 22.6199 89.8878 23.0042 89.8878 23.7978C89.8878 24.5686 89.388 25.0676 87.7112 25.0676C85.6845 25.0311 83.6984 24.4937 81.9299 23.5032V27.0851C83.1317 27.6745 84.7185 28.332 87.6659 28.332C91.8375 28.332 93.4927 26.4717 93.4927 23.707L81.998 17.4043ZM93.4927 23.707C93.4927 21.0997 92.1096 19.8752 88.2101 19.0367C86.0563 18.5605 85.5348 18.0846 85.5348 17.4043C85.5348 16.5435 86.3056 16.1801 87.7339 16.1801C89.4571 16.1801 91.1575 16.7015 92.7672 17.4271V14.0035C91.2237 13.301 89.5427 12.9524 87.8472 12.9833C83.993 12.9833 81.998 14.661 81.998 17.4043" fill="#8A8C8D"/>
<path id="Vector_4" d="M135.592 13.2101V28.1056H138.766V16.747L140.103 19.7621L144.592 28.1056H148.583V13.2101H145.409V22.8231L144.207 20.0342L140.602 13.2101H135.592Z" fill="#8A8C8D"/>
<path id="Vector_5" d="M115.404 13.2101H111.935V28.1056H115.404V13.2101Z" fill="#8A8C8D"/>
<path id="Vector_6" d="M107.933 23.7069C107.933 21.0996 106.55 19.8751 102.65 19.0366C100.496 18.5604 99.975 18.0845 99.975 17.4042C99.975 16.5434 100.746 16.18 102.174 16.18C103.897 16.18 105.598 16.7014 107.207 17.4269V14.0034C105.664 13.3009 103.983 12.9523 102.287 12.9832C98.4332 12.9832 96.4381 14.6609 96.4381 17.4042C96.4381 19.6033 97.4583 21.3492 101.449 22.12C103.829 22.6198 104.328 23.0041 104.328 23.7977C104.328 24.5685 103.828 25.0674 102.151 25.0674C100.125 25.031 98.1386 24.4936 96.3701 23.5031V27.0849C97.5718 27.6744 99.1587 28.3319 102.106 28.3319C106.278 28.3319 107.933 26.4716 107.933 23.7069Z" fill="#8A8C8D"/>
<path id="Vector_7" d="M55.05 13.2101V28.1056H62.1799L63.3025 24.8861H58.5414V13.2101H55.05Z" fill="#8A8C8D"/>
<path id="Vector_8" d="M40.9644 13.2101V16.4293H44.8186V28.1056H48.31V16.4293H52.4363V13.2101H40.9644Z" fill="#8A8C8D"/>
<path id="Vector_9" d="M35.9015 13.2101H31.3259L26.1316 28.1056H30.0983L30.8347 25.597C32.6482 26.1295 34.5766 26.1295 36.3902 25.597L37.1265 28.1056H41.0941L35.9015 13.2101ZM33.6135 22.9108C32.9674 22.9108 32.3246 22.8183 31.7046 22.6362L33.6135 16.1358L35.5225 22.6384C34.9024 22.8198 34.2596 22.9115 33.6135 22.9108Z" fill="#8A8C8D"/>
<path id="Vector_10" d="M74.4722 13.2101H69.8969L64.7026 28.1056H68.6702L69.4065 25.597C71.2201 26.1295 73.1485 26.1295 74.962 25.597L75.6984 28.1056H79.666L74.4722 13.2101ZM72.1846 22.9108C71.5384 22.9108 70.8956 22.8183 70.2756 22.6362L72.1846 16.1358L74.0935 22.6384C73.4734 22.8198 72.8306 22.9115 72.1846 22.9108Z" fill="#8A8C8D"/>
<path id="Vector_11" d="M127.904 13.2101H123.329L118.134 28.1056H122.102L122.838 25.597C124.652 26.1295 126.58 26.1295 128.394 25.597L129.13 28.1056H133.098L127.904 13.2101ZM125.615 22.9108C124.969 22.9108 124.326 22.8183 123.706 22.6362L125.615 16.1358L127.524 22.6384C126.904 22.8198 126.261 22.9115 125.615 22.9108Z" fill="#8A8C8D"/>
</g>
<defs>
<clipPath id="clip0_12243_1848">
<rect width="148.333" height="40" fill="white" transform="translate(0.833374)"/>
</clipPath>
</defs>
</svg>
