<svg width="78" height="40" viewBox="0 0 78 40" fill="none" xmlns="http://www.w3.org/2000/svg">
<g id="Company logo" clip-path="url(#clip0_12243_1834)">
<g id="Vector">
<path d="M68.6112 15.5204C70.62 13.4854 72.8458 14.0839 72.8458 16.0577C72.8458 17.9841 70.565 20.0636 67.8143 21.6754C67.5478 21.8285 67.2318 22.0067 66.913 22.1654C66.8059 21.681 66.7454 21.1437 66.7454 20.5452C66.7454 18.8999 67.4351 16.7119 68.6112 15.5204ZM57.8971 36.2933C55.2289 38.9963 51.8188 35.55 55.7977 31.519C56.6991 30.6059 58.1774 29.601 59.7163 28.6851C60.5928 30.8899 59.8976 34.2583 57.8971 36.2933ZM40.9013 25.4698C38.8541 25.4698 37.5296 22.9838 37.9391 19.9133C38.3403 16.8427 40.327 14.3568 42.3714 14.3568C44.2648 14.3568 45.5398 16.4919 45.3941 19.2479C45.3419 19.646 45.2952 20.0302 45.2568 20.4004C44.7182 23.2371 42.8331 25.4698 40.9013 25.4698ZM13.8784 24.4481C13.2106 25.1246 12.3945 25.4837 11.5674 25.4837C10.7952 25.4837 10.1275 25.1301 9.57516 24.5706C7.68185 22.6525 7.84672 17.9451 10.2786 15.4731C10.9683 14.7743 11.801 14.3679 12.6583 14.3679C13.425 14.3679 14.0982 14.7131 14.6505 15.2726C16.4339 17.0793 16.5384 21.7534 13.8784 24.4481ZM77.2259 25.4531C77.2259 25.4531 76.4675 24.3785 76.2339 24.0723C76.0745 23.8718 75.8767 23.6269 75.3546 23.9888C74.2032 24.771 72.9062 25.4865 71.3069 25.4865C70.0869 25.4865 69.0179 25.1719 68.2238 24.4899C68.5563 24.3367 68.9053 24.1669 69.2625 23.9748C71.1503 22.9393 72.7248 21.6253 73.4833 20.857C77.1572 17.135 76.0059 11.5841 71.5295 11.5841C67.3005 11.5841 63.959 15.7598 63.959 20.3976C63.959 21.0964 64.0415 22.093 64.3382 23.1536C64.0882 23.2761 62.4147 24.0973 60.406 25.2192C58.5182 23.7828 55.5724 24.4286 55.5724 24.4286C58.3066 20.4979 62.4229 14.3568 62.7719 13.8501C63.022 13.4882 62.9835 13.1291 62.7417 12.5612C62.4312 11.8792 62.1207 11.7539 61.6947 11.7539H53.1488C52.8685 11.7539 52.6486 11.8847 52.5662 12.2076C52.4893 12.5222 52.3079 13.619 52.2777 13.9949C52.2392 14.3707 52.5882 14.6017 52.9509 14.6017H59.1419L53.5417 22.7166C53.5032 22.7472 53.4648 22.7862 53.4345 22.8391C52.6239 24.0277 51.3736 25.6953 49.8732 25.6953C48.9417 25.6953 47.7903 25.0188 47.7903 22.8084C47.7903 20.6426 48.6532 16.0688 49.2824 12.5055C49.3511 12.1213 49.222 11.7455 48.6147 11.7455H47.1006C46.7516 11.7455 46.5538 11.9599 46.5016 12.2605C46.4109 12.8062 46.3202 13.3434 46.2295 13.8584C45.4793 12.4081 44.2812 11.5869 42.5473 11.5869C40.9398 11.5869 39.3735 12.1937 38.093 13.4826C34.8944 16.723 35.5017 22.0039 32.7428 24.7989C31.5529 26.0043 30.2037 25.6368 30.2037 23.265C30.2037 20.5563 31.2259 17.5387 32.402 14.6741C32.6054 14.1675 32.3855 13.7443 32.1685 13.4158C31.858 12.9565 31.737 12.7087 31.1765 12.7087C30.3054 12.7087 28.9122 13.2683 26.1231 13.2683C25.5323 13.2683 24.9634 13.246 24.4551 13.207C24.4853 12.7839 24.4936 12.4999 24.5018 12.3942C24.5183 11.9961 24.3809 11.7427 23.9632 11.7427H22.5398C22.0232 11.7427 21.8968 11.9877 21.8363 12.3942C21.5945 14.1201 21.1329 20.4617 17.9947 23.6408C17.632 24.0083 17.4122 24.1252 17.4122 24.1252C18.1926 22.5746 18.6158 20.5396 18.6158 18.9278C18.6158 14.3902 15.964 11.5813 12.6363 11.5813C11.6196 11.5813 10.5452 11.9126 9.53669 12.5473C10.0066 9.78293 10.438 7.19677 10.5891 6.32265C10.7183 5.58493 10.4517 5.20077 10.2621 4.89455C9.94063 4.39067 9.6576 4.16797 9.23442 4.16797H4.3239C4.04362 4.16797 3.83203 4.3684 3.76333 4.68298C3.68089 5.05044 3.50503 6.01921 3.48304 6.46462C3.46656 6.85714 3.7331 7.0019 4.04362 7.0019H7.63514C7.05807 10.5708 5.96715 17.4885 5.63466 19.2229C5.21972 21.4332 3.66441 24.1419 1.05115 25.1023C0.724144 25.2248 0.589496 25.5254 0.710404 25.879C0.831312 26.2325 1.27922 27.154 1.41387 27.3906C1.55126 27.6356 1.85353 27.797 2.14206 27.6968C3.49953 27.2124 4.74159 26.4302 5.72534 25.4391C5.96715 25.1942 6.20347 24.9158 6.4288 24.6179C7.60216 27.2904 9.99009 28.2647 12.4385 28.2647C15.2029 28.2647 18.1899 27.2904 20.281 25.1635C22.7294 22.6915 23.7516 18.5937 24.183 15.6902C24.7903 15.7737 25.4801 15.8433 26.1368 15.8433C27.8185 15.8433 29.2282 15.4814 29.2282 15.4814C29.2282 15.4814 27.5327 20.0413 27.5327 23.4042C27.5327 27.1957 29.3216 28.2703 31.3056 28.2703C33.3446 28.2703 34.7762 26.7197 35.7985 24.8016C36.065 25.4002 36.458 26.1156 36.9965 26.6585C37.9198 27.5938 39.0657 28.2703 40.7172 28.2703C42.605 28.2703 44.2263 27.1651 45.3777 25.4698C45.581 26.1824 45.8998 26.7837 46.3312 27.2208C46.9137 27.811 47.9827 28.2731 49.3237 28.2731C51.6264 28.2731 52.9619 26.522 56.5452 26.522C56.9986 26.522 57.408 26.5916 57.779 26.7225C56.1357 27.7358 54.5749 28.8271 53.6186 29.793C50.6646 32.7856 50.5272 36.7247 52.4673 38.6901C54.8167 41.0703 58.1664 39.8788 60.2576 37.7603C62.706 35.2799 63.4177 30.592 61.9998 27.3822C63.7117 26.4692 65.1434 25.7927 65.4841 25.6312C66.553 27.1122 68.3254 28.2731 71.2492 28.2731C73.3404 28.2731 75.448 27.5214 77.0913 26.2632C77.3551 26.085 77.4073 25.7147 77.2259 25.4531Z" fill="#8A8C8D"/>
</g>
</g>
<defs>
<clipPath id="clip0_12243_1834">
<rect width="76.6667" height="40" fill="white" transform="translate(0.666626)"/>
</clipPath>
</defs>
</svg>
