<svg width="88" height="40" viewBox="0 0 88 40" fill="none" xmlns="http://www.w3.org/2000/svg">
<g id="Company logo" clip-path="url(#clip0_12243_1844)">
<g id="Vector">
<path d="M6.57797 25.7319H0.717017V28.6625H6.57797V25.7319Z" fill="#8A8C8D"/>
<path d="M15.3668 25.7319H9.50951V28.6625H15.3668V25.7319Z" fill="#8A8C8D"/>
<path d="M15.3683 19.871H0.713623V22.8016H15.3683V19.871Z" fill="#8A8C8D"/>
<path d="M9.50928 14.0105H0.71702V16.9409H9.50928V14.0105Z" fill="#8A8C8D"/>
<path d="M15.3698 14.0105H12.4394V16.9409H15.3698V14.0105Z" fill="#8A8C8D"/>
<path d="M57.9122 13.9938C53.2058 13.9938 50.7751 17.3221 50.7751 21.4277C50.7751 25.5335 53.1459 28.862 57.9122 28.862C62.6786 28.862 65.0494 25.5335 65.0494 21.4277C65.0495 17.3221 62.6185 13.9938 57.9122 13.9938ZM61.4728 21.441C61.4695 24.0811 60.5799 26.2195 57.9122 26.2195C55.2446 26.2195 54.3548 24.0813 54.352 21.441V21.4278C54.3548 18.7879 55.2447 16.6497 57.9124 16.6497C60.5799 16.6497 61.4695 18.7879 61.4728 21.4278V21.4345C61.4728 21.4367 61.4728 21.4388 61.4728 21.441Z" fill="#8A8C8D"/>
<path d="M36.839 28.6622V8.10864C36.839 8.10864 39.5499 7.72356 39.7601 7.69527C39.9982 7.6631 40.3143 7.83263 40.3143 8.1678V15.7871C40.8769 15.2522 41.4964 14.8211 42.1715 14.4926C42.8472 14.1644 43.6396 14.0001 44.5499 14.0001C45.338 14.0001 46.0363 14.1338 46.646 14.4013C47.256 14.6682 47.765 15.0439 48.173 15.5266C48.581 16.01 48.8907 16.5868 49.1018 17.2575C49.3127 17.9282 49.4183 18.667 49.4183 19.4737V28.662H45.9427V19.4737C45.9427 18.5921 45.7386 17.9096 45.3306 17.4261C44.9224 16.9432 44.3103 16.7016 43.4939 16.7016C42.8937 16.7016 42.3311 16.8377 41.8061 17.11C41.2805 17.3821 40.7834 17.7522 40.3143 18.2216V28.6622H36.839Z" fill="#8A8C8D"/>
<path d="M83.238 28.8601C80.8463 28.8601 79.3474 27.4682 79.3474 24.8715V17.1758H76.652C76.652 17.1758 77.2249 15.1943 77.2702 15.0383C77.3157 14.8824 77.4342 14.7149 77.6721 14.6818C77.91 14.6488 79.3441 14.4487 79.3441 14.4487L80.0065 10.2348C80.0065 10.2348 81.9526 9.96044 82.2611 9.9144C82.5525 9.87077 82.8167 10.0806 82.8167 10.398V14.4487H86.2257V17.1758H82.8167V24.7678C82.8167 25.8044 83.4478 26.2006 84.0527 26.2006C84.4225 26.2006 84.9288 26.0042 85.3067 25.829C85.5402 25.721 85.902 25.8011 85.9955 26.127C86.0781 26.4158 86.5176 27.9485 86.5176 27.9485C86.1384 28.1933 84.9399 28.8601 83.238 28.8601Z" fill="#8A8C8D"/>
<path d="M74.7429 17.2217C74.0656 17.0017 72.7923 16.6495 71.5813 16.6495C70.3473 16.6495 69.3763 17.0758 69.3763 18.1019C69.3763 19.3834 71.4689 19.7565 72.9012 20.2789C73.8589 20.6281 76.4269 21.309 76.4269 24.071C76.4269 27.426 73.6407 28.8604 70.6686 28.8604C67.696 28.8604 65.9399 27.7549 65.9399 27.7549C65.9399 27.7549 66.401 26.1262 66.4944 25.8047C66.5788 25.5154 66.9151 25.4139 67.1294 25.4961C67.8944 25.791 69.2757 26.2009 70.8372 26.2009C72.418 26.2009 73.1828 25.7182 73.1828 24.6892C73.1828 23.3197 71.0481 22.9011 69.6362 22.4558C68.6636 22.1492 66.0893 21.4343 66.0893 18.3967C66.0893 15.4044 68.7169 14.0005 71.5251 14.0005C73.9021 14.0005 75.0681 14.4976 75.939 14.9413C75.939 14.9413 75.4537 16.6327 75.3816 16.8847C75.2966 17.1842 75.0509 17.3215 74.7429 17.2217Z" fill="#8A8C8D"/>
<path d="M35.4828 14.4959C35.4828 14.1722 35.2062 13.9869 34.9424 14.0171C33.7761 14.1507 32.944 14.6996 32.4056 15.2106C31.3486 14.3824 29.8812 13.9869 28.2344 13.9869C24.9326 13.9869 22.3529 15.5805 22.3529 19.0553C22.3529 21.0501 23.202 22.4246 24.5505 23.2338C23.549 23.7078 22.882 24.7137 22.882 25.7026C22.882 27.3568 24.1889 27.8748 24.1889 27.8748C24.1889 27.8748 21.9039 28.9838 21.9039 31.2026C21.9039 34.043 24.5178 35.1914 27.7118 35.1914C32.3158 35.1914 35.4834 33.2898 35.4834 29.7982C35.4834 27.6492 33.8389 26.4629 30.2554 26.3219C28.1288 26.2379 26.7514 26.1614 26.4101 26.0484C25.9592 25.8987 25.7375 25.5377 25.7375 25.1391C25.7375 24.6991 26.099 24.2802 26.6687 23.9925C27.1657 24.0805 27.6901 24.1239 28.2348 24.1239C31.5393 24.1239 34.1164 22.535 34.1164 19.0555C34.1164 18.2118 33.9641 17.4793 33.6872 16.8535C34.1726 16.5945 34.7699 16.4123 35.4832 16.4123C35.4832 16.4123 35.4828 14.7911 35.4828 14.4959ZM26.3837 28.6805C26.3837 28.6805 28.1176 28.7461 29.8502 28.8263C31.7967 28.9163 32.4032 29.3358 32.4032 30.3437C32.4032 31.5752 30.7117 32.7729 28.3477 32.7729C26.1038 32.7729 24.9829 31.9922 24.9829 30.6924C24.9829 29.9466 25.3767 29.1123 26.3837 28.6805ZM28.2407 21.6984C26.6765 21.6984 25.4562 20.8676 25.4562 19.0553C25.4562 17.2429 26.6776 16.4121 28.2407 16.4121C29.804 16.4121 31.0252 17.2407 31.0252 19.0553C31.0252 20.87 29.8054 21.6984 28.2407 21.6984Z" fill="#8A8C8D"/>
</g>
</g>
<defs>
<clipPath id="clip0_12243_1844">
<rect width="86.6667" height="40" fill="white" transform="translate(0.666748)"/>
</clipPath>
</defs>
</svg>
