<svg width="140" height="40" viewBox="0 0 140 40" fill="none" xmlns="http://www.w3.org/2000/svg">
<g id="Company logo" clip-path="url(#clip0_12243_1837)">
<path id="Vector" fill-rule="evenodd" clip-rule="evenodd" d="M3.78897 31.7529V28.3806H18.964V31.7529H3.78897ZM15.7407 14.8918H7.01085L11.3765 20.9337L15.7407 14.8918ZM22.3362 11.5195L11.3765 26.6945L0.416748 11.5195H22.3362Z" fill="#8A8C8D"/>
<g id="Vector_2">
<path d="M35.7129 28.383V22.9705H30.5225V28.383H27.3933V14.8941H30.5225V20.173H35.7129V14.8913H38.842V28.3801L35.7129 28.383Z" fill="#8A8C8D"/>
<path d="M42.7902 28.383V14.8941H51.3374V17.7619H45.9194V20.1731H50.8527V22.8975H45.9194V25.5293H51.3374V28.383H42.7902Z" fill="#8A8C8D"/>
<path d="M55.0652 28.383V14.8941H58.1929V25.5321H63.6053V28.3858L55.0652 28.383Z" fill="#8A8C8D"/>
<path d="M66.2313 28.383V14.8941H69.3646V25.5321H74.7756V28.3858L66.2313 28.383Z" fill="#8A8C8D"/>
<path d="M83.6024 28.6036C79.4236 28.6036 76.7553 25.6038 76.7553 21.6456C76.7553 17.6875 79.5529 14.6693 83.7316 14.6693C87.9104 14.6693 90.5787 17.6706 90.5787 21.6456C90.5787 25.6206 87.7629 28.6036 83.6024 28.6036ZM83.6544 17.4683C81.52 17.4683 80.084 19.2162 80.084 21.6456C80.084 24.075 81.52 25.8243 83.6544 25.8243C85.7887 25.8243 87.2261 24.0567 87.2261 21.6456C87.2261 19.2345 85.7929 17.4683 83.6544 17.4683Z" fill="#8A8C8D"/>
<path d="M97.3401 28.6036C95.8127 28.6036 93.9678 27.9966 92.7946 27.2224L93.6587 24.3883C94.7448 25.1794 96.1626 25.6951 97.4328 25.6951C98.5372 25.6951 98.9601 25.1794 98.9601 24.5176C98.9601 23.8151 98.6103 23.3387 96.549 22.5111C94.1744 21.5543 93.3496 20.1731 93.3496 18.553C93.3496 16.5859 94.95 14.6693 98.0974 14.6693C99.5699 14.6693 101.08 15.185 101.871 15.7189L101.078 18.5165C100.303 17.9825 99.0529 17.4121 98.0946 17.4121C96.9537 17.4121 96.4942 17.946 96.4942 18.4982C96.4942 19.382 97.1743 19.6771 98.8688 20.3937C101.39 21.4615 102.144 22.6769 102.144 24.4066C102.144 26.5606 100.58 28.6036 97.3401 28.6036Z" fill="#8A8C8D"/>
<path d="M105.499 28.383V14.8941H108.629V28.383H105.499Z" fill="#8A8C8D"/>
<path d="M124.228 20.7997V27.2421C122.681 28.1602 120.909 28.6315 119.111 28.6036C115.154 28.6036 112.025 25.7695 112.025 21.6456C112.025 17.5217 115.19 14.6693 119.276 14.6693C121.044 14.6693 122.46 15.1302 123.804 15.8299L122.497 18.3507C121.568 17.8615 120.534 17.6027 119.484 17.5961C116.796 17.5961 115.362 19.271 115.362 21.6456C115.362 24.2225 117.091 25.8243 119.296 25.8243C120.289 25.8243 120.787 25.7133 121.284 25.4562V23.468H118.577V20.7983L124.228 20.7997Z" fill="#8A8C8D"/>
<path d="M139.088 28.6402L130.953 21.3337V28.383H127.824V14.7073L128.245 14.6328L136.271 21.8845V14.8913H139.4V28.5854L139.088 28.6402Z" fill="#8A8C8D"/>
</g>
</g>
<defs>
<clipPath id="clip0_12243_1837">
<rect width="139.167" height="40" fill="white" transform="translate(0.416748)"/>
</clipPath>
</defs>
</svg>
