<svg width="96" height="40" viewBox="0 0 96 40" fill="none" xmlns="http://www.w3.org/2000/svg">
<g id="Company logo" clip-path="url(#clip0_12243_1860)">
<g id="Vector">
<path d="M10.7571 10.9218V18.4949H3.80201V10.9218H0.5V28.9996H3.80201V21.6724H10.7571V28.9996H14.0591V10.9218H10.7571Z" fill="#8A8C8D"/>
<path d="M24.6268 23.1555C24.6268 23.88 24.339 24.5749 23.8267 25.0872C23.3144 25.5995 22.6196 25.8873 21.8951 25.8873C21.1706 25.8873 20.4758 25.5995 19.9635 25.0872C19.4512 24.5749 19.1634 23.88 19.1634 23.1555V15.4125H16.0313V23.1555C16.0313 24.7092 16.6485 26.1993 17.7471 27.2979C18.8457 28.3965 20.3358 29.0137 21.8895 29.0137C23.4431 29.0137 24.9332 28.3965 26.0318 27.2979C27.1305 26.1993 27.7477 24.7092 27.7477 23.1555V15.4125H24.6268V23.1555Z" fill="#8A8C8D"/>
<path d="M47.8339 16.2106C47.8339 14.6234 48.8839 14.1203 50.0342 14.1203C50.9612 14.1203 52.1859 14.8257 52.9867 15.6815L55.0381 13.2645C54.014 11.8796 51.9367 10.9218 50.2364 10.9218C46.8389 10.9218 44.3814 12.9118 44.3814 16.2106C44.3814 22.3308 51.8623 20.3894 51.8623 23.8144C51.8623 24.8708 50.8366 25.8043 49.662 25.8043C47.8096 25.8043 47.2094 24.8984 46.3584 23.9406L44.0821 26.3075C45.5382 28.0952 47.334 29.0028 49.4857 29.0028C52.7133 29.0028 55.3099 26.9886 55.3099 23.8403C55.3099 17.0454 47.829 19.1566 47.829 16.2106" fill="#8A8C8D"/>
<path d="M94.1139 26.1115C92.2631 26.1115 91.7373 25.3107 91.7373 24.0844V18.6565H94.6138V15.9062H91.7373V12.2774L88.5615 13.7027V24.759C88.5615 27.587 90.5126 29.0123 93.1885 29.0123C93.6082 29.02 94.0276 28.9864 94.4407 28.912L95.2157 26.0597C94.8662 26.084 94.465 26.1083 94.1139 26.1083" fill="#8A8C8D"/>
<path d="M36.5495 15.5038C34.998 15.5038 33.9156 15.9536 32.8689 16.9809V11.0305H29.7319V22.0593C29.7319 26.1881 32.7168 29.016 36.0706 29.016C39.7916 29.016 43.0645 26.1379 43.0645 22.2616C43.0645 18.4338 40.0521 15.5055 36.5495 15.5055V15.5038ZM36.5301 25.8596C35.8261 25.8596 35.138 25.6509 34.5527 25.2598C33.9673 24.8687 33.5111 24.3128 33.2417 23.6625C32.9724 23.0121 32.9019 22.2964 33.0392 21.606C33.1765 20.9156 33.5155 20.2814 34.0133 19.7836C34.5111 19.2859 35.1453 18.9469 35.8357 18.8095C36.5261 18.6722 37.2418 18.7427 37.8921 19.0121C38.5425 19.2815 39.0984 19.7377 39.4895 20.323C39.8806 20.9083 40.0893 21.5964 40.0893 22.3004C40.0893 23.2444 39.7143 24.1497 39.0468 24.8172C38.3793 25.4846 37.474 25.8596 36.5301 25.8596Z" fill="#8A8C8D"/>
<path d="M70.6113 22.0958C70.6113 18.213 67.3449 15.3414 63.6174 15.3414C60.2636 15.3414 57.2787 18.1693 57.2787 22.2981V33.3334H60.4157V27.3749C61.4608 28.4006 62.5448 28.8519 64.0947 28.8519C67.5973 28.8519 70.6097 25.9253 70.6097 22.0958H70.6113ZM67.641 22.057C67.641 22.761 67.4322 23.4491 67.0411 24.0344C66.65 24.6197 66.0942 25.0759 65.4438 25.3453C64.7934 25.6147 64.0778 25.6852 63.3874 25.5479C62.6969 25.4105 62.0627 25.0716 61.565 24.5738C61.0672 24.076 60.7282 23.4418 60.5909 22.7514C60.4535 22.061 60.524 21.3453 60.7934 20.6949C61.0628 20.0446 61.519 19.4887 62.1043 19.0976C62.6896 18.7065 63.3778 18.4978 64.0817 18.4978C65.0257 18.4978 65.931 18.8728 66.5985 19.5402C67.266 20.2077 67.641 21.113 67.641 22.057Z" fill="#8A8C8D"/>
</g>
<path id="Vector_2" d="M80.7105 15.2927V12.1735C81.1227 11.981 81.4718 11.6753 81.7169 11.292C81.9621 10.9088 82.0934 10.4638 82.0954 10.0088V9.93601C82.0937 9.30021 81.8403 8.69094 81.3908 8.24136C80.9412 7.79178 80.3319 7.53846 79.6961 7.53675H79.6233C78.9875 7.53846 78.3783 7.79178 77.9287 8.24136C77.4791 8.69094 77.2258 9.30021 77.2241 9.93601V10.0088C77.2261 10.4638 77.3573 10.9088 77.6025 11.292C77.8477 11.6753 78.1967 11.981 78.6089 12.1735V15.2927C77.4238 15.4739 76.3076 15.965 75.3733 16.7164L66.8084 10.0525C66.8694 9.83266 66.902 9.60595 66.9055 9.37785C66.9061 8.84253 66.748 8.31904 66.4511 7.87357C66.1542 7.42811 65.7319 7.08069 65.2376 6.87524C64.7433 6.66979 64.1991 6.61554 63.674 6.71935C63.1488 6.82316 62.6662 7.08036 62.2872 7.45844C61.9083 7.83652 61.6499 8.31849 61.5448 8.8434C61.4398 9.36832 61.4927 9.9126 61.697 10.4074C61.9012 10.9022 62.2477 11.3254 62.6924 11.6233C63.1372 11.9213 63.6603 12.0806 64.1956 12.0813C64.6658 12.0795 65.1273 11.954 65.5336 11.7172L73.9544 18.2727C73.1959 19.417 72.8002 20.7635 72.819 22.1362C72.8377 23.5089 73.2701 24.844 74.0596 25.9672L71.4969 28.5298C71.2912 28.4643 71.077 28.4295 70.8611 28.4263C70.4211 28.4263 69.991 28.5568 69.6252 28.8012C69.2594 29.0456 68.9743 29.3931 68.8059 29.7995C68.6375 30.206 68.5935 30.6533 68.6793 31.0848C68.7651 31.5163 68.977 31.9127 69.2881 32.2238C69.5992 32.5349 69.9956 32.7468 70.4271 32.8326C70.8586 32.9185 71.3059 32.8744 71.7124 32.706C72.1189 32.5377 72.4663 32.2525 72.7107 31.8867C72.9552 31.5209 73.0856 31.0908 73.0856 30.6508C73.0827 30.435 73.0478 30.2207 72.9821 30.015L75.5172 27.4799C76.3448 28.112 77.3058 28.5466 78.327 28.7507C79.3481 28.9548 80.4024 28.9228 81.4093 28.6573C82.4163 28.3917 83.3492 27.8996 84.137 27.2185C84.9247 26.5375 85.5464 25.6854 85.9546 24.7274C86.3629 23.7694 86.5468 22.7308 86.4924 21.6909C86.438 20.651 86.1468 19.6372 85.6409 18.727C85.135 17.8168 84.4278 17.0343 83.5733 16.4391C82.7188 15.8438 81.7396 15.4517 80.7105 15.2927ZM79.6605 25.553C78.9668 25.553 78.2887 25.3473 77.7119 24.9619C77.1351 24.5765 76.6855 24.0287 76.42 23.3878C76.1546 22.7469 76.0851 22.0416 76.2204 21.3613C76.3558 20.6809 76.6898 20.0559 77.1804 19.5654C77.6709 19.0748 78.2959 18.7408 78.9763 18.6055C79.6566 18.4701 80.3619 18.5396 81.0028 18.8051C81.6437 19.0705 82.1915 19.5201 82.5769 20.0969C82.9623 20.6737 83.168 21.3518 83.168 22.0455C83.168 22.9758 82.7985 23.8679 82.1407 24.5257C81.4829 25.1835 80.5908 25.553 79.6605 25.553Z" fill="#8A8C8D"/>
</g>
<defs>
<clipPath id="clip0_12243_1860">
<rect width="95" height="40" fill="white" transform="translate(0.5)"/>
</clipPath>
</defs>
</svg>
