<svg width="140" height="40" viewBox="0 0 140 40" fill="none" xmlns="http://www.w3.org/2000/svg">
<g id="Company logo" clip-path="url(#clip0_12243_1854)">
<g id="Vector">
<path fill-rule="evenodd" clip-rule="evenodd" d="M48.9193 25.1399C48.9193 25.7332 48.4844 26.221 47.8656 26.221C47.2636 26.221 46.8287 25.7321 46.8287 25.1399V14.8321C46.8287 14.2388 47.2636 13.751 47.8824 13.751C48.4844 13.751 48.9193 14.2399 48.9193 14.8321V25.1399Z" fill="#8A8C8D"/>
<path fill-rule="evenodd" clip-rule="evenodd" d="M62.4324 14.8321V24.2509C62.4324 25.5243 61.7805 26.2398 60.7436 26.2398H60.6605C59.674 26.2398 59.205 25.6465 58.7873 24.7742L56.6799 20.501L54.8067 16.0887L54.8571 20.3621L54.8739 25.1232C54.8739 25.7165 54.4394 26.2043 53.8202 26.2043C53.2182 26.2043 52.7837 25.7154 52.7837 25.1232V15.7043C52.7837 14.5354 53.4356 13.7154 54.5733 13.7154H54.6569C55.7106 13.7154 56.1451 14.3088 56.5637 15.181L58.6371 19.4198L60.4099 23.5365L60.36 19.5943L60.3432 14.8332C60.3432 14.2399 60.7776 13.7521 61.3969 13.7521C61.9975 13.751 62.4324 14.2388 62.4324 14.8321Z" fill="#8A8C8D"/>
<path fill-rule="evenodd" clip-rule="evenodd" d="M70.8122 25.1232C70.8122 25.7165 70.3777 26.2043 69.7585 26.2043C69.1569 26.2043 68.722 25.7154 68.722 25.1232V15.7921H66.1297C65.5949 15.7921 65.1604 15.3732 65.1604 14.7632C65.1604 14.1699 65.5949 13.7521 66.1297 13.7521H73.4045C73.9393 13.7521 74.3742 14.171 74.3742 14.781C74.3742 15.3744 73.9393 15.7921 73.4045 15.7921H70.8122V25.1232Z" fill="#8A8C8D"/>
<path fill-rule="evenodd" clip-rule="evenodd" d="M77.1004 24.7744V15.0944C77.1004 14.1878 77.5853 13.6822 78.472 13.7167H84.4929C85.0277 13.7167 85.4621 14.1522 85.4621 14.7456C85.4621 15.3389 85.0277 15.7566 84.4929 15.7566H79.1738V18.7566H83.8736C84.3925 18.7566 84.8102 19.1577 84.8102 19.7333C84.8102 20.3089 84.3925 20.71 83.8736 20.71H79.1738V24.1633H84.4929C85.0277 24.1633 85.4621 24.5989 85.4621 25.1922C85.4621 25.7855 85.0277 26.2033 84.4929 26.2033H78.4216C77.5522 26.2044 77.0678 25.6988 77.1004 24.7744Z" fill="#8A8C8D"/>
<path fill-rule="evenodd" clip-rule="evenodd" d="M96.8528 26.2566C97.438 25.9422 97.6223 25.2966 97.3376 24.7911L95.247 20.92C96.9699 20.5711 97.9737 19.2455 97.9737 17.4489C97.9737 15.5655 96.8369 13.7167 94.1102 13.7167H90.1468C89.2606 13.6822 88.7757 14.1878 88.7757 15.0944V25.1411C88.7757 25.7333 89.2102 26.2222 89.8122 26.2222C90.4314 26.2222 90.8659 25.7344 90.8659 25.1411L90.8491 21.3388H93.0564L95.3814 25.8211C95.6646 26.3266 96.2839 26.5533 96.8528 26.2566ZM94.1592 19.3667H90.8477V15.7556H94.1424C95.246 15.7556 95.8653 16.4878 95.8653 17.5522C95.8653 18.6166 95.2801 19.3667 94.1592 19.3667Z" fill="#8A8C8D"/>
<path fill-rule="evenodd" clip-rule="evenodd" d="M102.288 25.2799C101.034 24.111 100.465 22.2799 100.465 19.9777C100.465 17.6577 101.017 15.8443 102.255 14.6932C103.024 13.9955 104.06 13.5244 105.566 13.5244C106.887 13.5244 107.908 13.8388 108.677 14.5188C109.346 15.0766 109.831 15.8621 110.115 16.961C110.266 17.5366 109.881 18.1121 109.246 18.2343C108.644 18.3388 108.16 17.9377 107.975 17.3621C107.775 16.8044 107.506 16.4032 107.189 16.1232C106.754 15.7221 106.219 15.5477 105.516 15.5477C104.764 15.5477 104.111 15.7744 103.626 16.2799C102.924 17.0121 102.622 18.321 102.622 19.9777C102.622 21.6176 102.907 22.9254 103.643 23.6577C104.128 24.1632 104.764 24.3899 105.499 24.3899C106.268 24.3899 106.853 24.181 107.339 23.7099C107.589 23.4655 107.808 23.1521 107.958 22.7854C108.175 22.2443 108.627 21.8432 109.212 21.9832C109.797 22.1232 110.166 22.7154 109.981 23.291C109.68 24.2499 109.162 25.0177 108.46 25.541C107.691 26.1165 106.737 26.4132 105.533 26.4132C103.995 26.4132 103.024 25.9421 102.288 25.2799Z" fill="#8A8C8D"/>
<path fill-rule="evenodd" clip-rule="evenodd" d="M117.642 13.5244C114.012 13.5244 112.473 16.071 112.473 19.9777C112.473 24.0065 113.996 26.431 117.642 26.431C121.22 26.431 122.793 24.0065 122.793 19.9777C122.793 16.001 121.238 13.5244 117.642 13.5244ZM117.625 15.5655C119.615 15.5655 120.652 17.0121 120.652 19.9777C120.652 22.9421 119.598 24.3899 117.625 24.3899C115.634 24.3899 114.631 22.9432 114.631 19.9777C114.631 17.0133 115.668 15.5655 117.625 15.5655Z" fill="#8A8C8D"/>
<path fill-rule="evenodd" clip-rule="evenodd" d="M139.016 25.1231C139.016 25.7165 138.581 26.2043 137.962 26.2043C137.36 26.2043 136.925 25.7154 136.925 25.1231V20.4487L136.976 15.8965L135.52 20.5187L134.049 25.0709C133.799 25.8732 133.28 26.1876 132.627 26.1876C131.941 26.1876 131.44 25.8565 131.172 25.0543L129.667 20.5199L128.279 15.9676L128.329 20.4499V25.1243C128.329 25.7176 127.894 26.2054 127.275 26.2054C126.673 26.2054 126.238 25.7165 126.238 25.1243V15.7932C126.238 14.5021 126.907 13.7521 128.078 13.7521C129.182 13.7521 129.801 14.3621 130.151 15.4788L131.69 20.2399L132.627 23.4843L133.58 20.2399L135.119 15.4788C135.47 14.3621 136.072 13.7521 137.176 13.7521C138.347 13.7521 138.999 14.4843 138.999 15.7932L139.016 25.1231Z" fill="#8A8C8D"/>
<path d="M29.9484 21.7597C29.9484 22.0717 29.8289 22.3709 29.6162 22.5916C29.4034 22.8121 29.1149 22.9361 28.814 22.9361C28.5132 22.9361 28.2246 22.8121 28.0119 22.5916C27.7991 22.3709 27.6796 22.0717 27.6796 21.7597V11.2501C27.6796 10.9381 27.7991 10.6388 28.0119 10.4182C28.2246 10.1976 28.5132 10.0736 28.814 10.0736C29.1149 10.0736 29.4034 10.1976 29.6162 10.4182C29.8289 10.6388 29.9484 10.9381 29.9484 11.2501V21.7597ZM29.5547 29.0416C29.4046 29.1972 25.1858 32.843 17.4514 32.843C9.71686 32.843 5.52621 29.2166 5.34808 29.0611C5.2358 28.9629 5.14336 28.8428 5.07597 28.7075C5.00859 28.5721 4.96766 28.4244 4.95543 28.2727C4.94325 28.1209 4.96005 27.9682 5.0049 27.8232C5.04975 27.6782 5.12175 27.5438 5.21681 27.4277C5.41262 27.1928 5.69001 27.0477 5.98858 27.024C6.28715 27.0003 6.58264 27.1001 6.81056 27.3014C6.87622 27.35 10.645 30.5194 17.442 30.5194C24.2389 30.5194 28.0359 27.3305 28.0734 27.3014C28.3039 27.1019 28.6003 27.0035 28.8997 27.0271C29.1991 27.0506 29.4778 27.1944 29.6765 27.4277C29.8678 27.6592 29.9633 27.9595 29.9422 28.2635C29.9211 28.5676 29.7852 28.8507 29.564 29.0514L29.5547 29.0416ZM4.94493 11.2501C4.96187 10.9371 5.09763 10.6438 5.32251 10.4342C5.54735 10.2248 5.84307 10.1161 6.14496 10.132C6.42482 10.1485 6.6889 10.2718 6.88626 10.4783C7.08361 10.6847 7.20027 10.9597 7.21371 11.2501V21.7403C7.21371 22.0523 7.0942 22.3515 6.88145 22.5721C6.66874 22.7927 6.38021 22.9166 6.07935 22.9166C5.77849 22.9166 5.48995 22.7927 5.2772 22.5721C5.06445 22.3515 4.94493 22.0523 4.94493 21.7403V11.2501ZM10.6356 8.91674C10.6526 8.60375 10.7883 8.31045 11.0132 8.10092C11.238 7.89143 11.5338 7.78274 11.8357 7.79866C12.1155 7.81513 12.3796 7.93852 12.577 8.14497C12.7743 8.35142 12.891 8.62633 12.9044 8.91674V24.4722C12.9044 24.7842 12.7849 25.0834 12.5722 25.304C12.3594 25.5246 12.0709 25.6486 11.77 25.6486C11.4692 25.6486 11.1806 25.5246 10.9679 25.304C10.7551 25.0834 10.6356 24.7842 10.6356 24.4722V8.91674ZM16.3545 8.33341C16.3545 8.0214 16.474 7.72217 16.6867 7.50158C16.8995 7.28094 17.188 7.15699 17.4889 7.15699C17.7897 7.15699 18.0783 7.28094 18.291 7.50158C18.5037 7.72217 18.6232 8.0214 18.6232 8.33341V25.25C18.6232 25.562 18.5037 25.8612 18.291 26.0818C18.0783 26.3024 17.7897 26.4264 17.4889 26.4264C17.188 26.4264 16.8995 26.3024 16.6867 26.0818C16.474 25.8612 16.3545 25.562 16.3545 25.25V8.33341ZM21.9795 8.91674C21.9795 8.60473 22.099 8.3055 22.3118 8.08491C22.5246 7.86427 22.8131 7.74032 23.114 7.74032C23.4148 7.74032 23.7034 7.86427 23.9161 8.08491C24.1288 8.3055 24.2483 8.60473 24.2483 8.91674V24.4722C24.2483 24.7842 24.1288 25.0834 23.9161 25.304C23.7034 25.5246 23.4148 25.6486 23.114 25.6486C22.8131 25.6486 22.5246 25.5246 22.3118 25.304C22.099 25.0834 21.9795 24.7842 21.9795 24.4722V8.91674ZM30.2578 2.5001H4.68243C4.12514 2.49623 3.57261 2.60641 3.05648 2.82434C2.5403 3.04222 2.0707 3.36357 1.67446 3.76994C1.27821 4.17636 0.963165 4.65978 0.74738 5.19261C0.531547 5.72541 0.419221 6.29716 0.416748 6.87508V33.1249C0.419221 33.7028 0.531547 34.2746 0.74738 34.8074C0.963165 35.3402 1.27821 35.8237 1.67446 36.2301C2.0707 36.6364 2.5403 36.9578 3.05648 37.1757C3.57261 37.3936 4.12514 37.5036 4.68243 37.4999H30.2578C30.8143 37.5036 31.366 37.3939 31.8816 37.1766C32.3971 36.9593 32.8664 36.6388 33.2625 36.2335C33.6586 35.8281 33.9738 35.3458 34.1902 34.8142C34.4065 34.2824 34.5198 33.7118 34.5235 33.1347V6.87508C34.521 6.29796 34.409 5.72704 34.1937 5.19485C33.9785 4.66267 33.6643 4.17967 33.2691 3.77339C32.8738 3.36716 32.4053 3.04563 31.8902 2.82714C31.3752 2.60864 30.8237 2.49753 30.2672 2.5001" fill="#8A8C8D"/>
</g>
</g>
<defs>
<clipPath id="clip0_12243_1854">
<rect width="139.167" height="40" fill="white" transform="translate(0.416748)"/>
</clipPath>
</defs>
</svg>
