<svg width="120" height="40" viewBox="0 0 120 40" fill="none" xmlns="http://www.w3.org/2000/svg">
<g id="Company logo" clip-path="url(#clip0_12243_1841)">
<g id="Vector">
<path fill-rule="evenodd" clip-rule="evenodd" d="M2.86567 29.8753C0.155745 27.1884 0.155788 22.832 2.86575 20.1451L10.2261 12.8472C12.517 10.5758 16.0111 10.2246 18.6741 11.7934C19.4979 12.2786 19.4907 13.3918 18.8132 14.0635C18.1357 14.7353 17.0297 14.6775 16.1101 14.4108C14.9326 14.0693 13.6083 14.359 12.6796 15.2798L5.31918 22.5776C3.9642 23.9211 3.96418 26.0993 5.31915 27.4428C6.67413 28.7863 8.87104 28.7863 10.226 27.4428L24.9466 12.8473C27.6567 10.1604 32.0503 10.1604 34.7604 12.8473L42.1208 20.1451C44.8308 22.8319 44.8308 27.1884 42.1208 29.8753C39.4108 32.5623 35.0171 32.5623 32.3071 29.8753L29.8537 27.4428L26.7868 30.4835C24.496 32.7549 21.0018 33.1062 18.3387 31.5373C17.515 31.0521 17.5223 29.939 18.1998 29.2672C18.8772 28.5954 19.9832 28.6532 20.9028 28.9199C22.0804 29.2614 23.4047 28.9717 24.3334 28.0509L27.4879 24.9233C28.7944 23.6278 30.9128 23.6278 32.2195 24.9233L34.7605 27.4428C36.1155 28.7862 38.3123 28.7862 39.6673 27.4428C41.0223 26.0993 41.0223 23.9211 39.6673 22.5776L32.3069 15.2799C30.9519 13.9364 28.7551 13.9365 27.4001 15.2799L12.6795 29.8754C9.96945 32.5623 5.57564 32.5623 2.86567 29.8753Z" fill="#8A8C8D"/>
<path d="M71.8707 14.7317C70.1655 14.7317 68.8736 15.3423 68.021 16.5635C67.2718 15.3423 66.0833 14.7317 64.5073 14.7317C62.8796 14.7317 61.6911 15.2914 60.916 16.4363V15.0879H57.5831V27.8088H60.916V20.6596C60.916 18.8024 61.872 17.7847 63.3447 17.7847C64.714 17.7847 65.5149 18.6752 65.5149 20.2017V27.8088H68.8478V20.6596C68.8478 18.8024 69.7263 17.7847 71.2506 17.7847C72.62 17.7847 73.4208 18.6752 73.4208 20.2017V27.8088H76.7538V19.9727C76.7538 16.7925 74.8419 14.7317 71.8707 14.7317Z" fill="#8A8C8D"/>
<path d="M89.1439 16.5889C88.1363 15.3423 86.7411 14.7317 84.9326 14.7317C83.2015 14.7317 81.7289 15.3932 80.4887 16.6907C79.2744 17.9882 78.6543 19.5656 78.6543 21.4484C78.6543 23.331 79.2744 24.9339 80.4887 26.2315C81.7289 27.5289 83.2015 28.165 84.9326 28.165C86.7411 28.165 88.1363 27.5544 89.1439 26.3077V27.8088H92.477V15.0879H89.1439V16.5889ZM82.9949 24.0434C82.3231 23.3565 81.9872 22.4914 81.9872 21.4484C81.9872 20.4052 82.3231 19.5402 82.9949 18.8787C83.6666 18.1918 84.5192 17.861 85.5526 17.861C86.5861 17.861 87.4387 18.1918 88.1104 18.8787C88.808 19.5402 89.1439 20.4052 89.1439 21.4484C89.1439 22.4914 88.808 23.3565 88.1104 24.0434C87.4387 24.7049 86.5861 25.0356 85.5526 25.0356C84.5192 25.0356 83.6666 24.7049 82.9949 24.0434Z" fill="#8A8C8D"/>
<path d="M104.775 17.2758V15.0878H95.0859V18.1663H100.279L94.8268 25.6208V27.8087H105.033V24.7303H99.2964L104.775 17.2758Z" fill="#8A8C8D"/>
<path d="M118.968 22.7967C119.046 22.3134 119.097 21.8809 119.097 21.4484C119.097 19.5402 118.478 17.9628 117.237 16.6653C116.023 15.3677 114.447 14.7317 112.561 14.7317C110.571 14.7317 108.918 15.3677 107.652 16.6653C106.386 17.9374 105.74 19.5402 105.74 21.4484C105.74 23.3819 106.386 24.9848 107.678 26.2568C108.97 27.5289 110.675 28.165 112.819 28.165C115.299 28.165 117.186 27.2491 118.452 25.4427L115.765 23.9162C115.119 24.7558 114.137 25.1883 112.871 25.1883C110.882 25.1883 109.668 24.3996 109.228 22.7967H118.968ZM109.177 20.2525C109.564 18.6243 110.778 17.6829 112.561 17.6829C114.085 17.6829 115.377 18.5225 115.765 20.2525H109.177Z" fill="#8A8C8D"/>
</g>
</g>
<defs>
<clipPath id="clip0_12243_1841">
<rect width="118.333" height="40" fill="white" transform="translate(0.833252)"/>
</clipPath>
</defs>
</svg>
