<svg width="112" height="40" viewBox="0 0 112 40" fill="none" xmlns="http://www.w3.org/2000/svg">
<g id="Company logo" clip-path="url(#clip0_12243_1857)">
<g id="Vector">
<path fill-rule="evenodd" clip-rule="evenodd" d="M11.9032 20.5157C11.9032 14.7596 10.9371 12.3735 8.28093 12.3735C5.93828 12.3735 4.75498 14.0463 4.75498 19.8517C4.75498 25.583 5.67266 27.9447 8.37745 27.9447C10.7682 27.9447 11.9032 26.2964 11.9032 20.5157ZM0.166748 20.3683C0.166748 13.8986 4.53762 11.3405 8.4259 11.3405C12.5794 11.3405 16.4914 13.8742 16.4914 19.9746C16.4914 26.4932 12.1206 28.9778 8.2323 28.9778C4.07897 28.9778 0.166748 26.272 0.166748 20.3683Z" fill="#8A8C8D"/>
<path fill-rule="evenodd" clip-rule="evenodd" d="M36.1596 20.7863L40.289 20.5649C40.289 17.5886 39.9029 16.5061 38.4538 16.5061C37.222 16.5061 36.2561 17.6869 36.1596 20.7863ZM32.344 22.2377C32.344 17.9575 35.459 15.5714 38.6468 15.5714C41.9406 15.5714 44.0076 17.229 44.1253 21.5657C44.1277 21.65 44.0603 21.7211 43.9771 21.7211H36.3112C36.2281 21.7211 36.1609 21.7922 36.1629 21.8767C36.2709 25.7841 37.7614 26.8624 40.2166 26.8624C41.4149 26.8624 42.381 26.5787 43.1896 26.2135C43.2491 26.1864 43.3182 26.2023 43.3607 26.253L43.6818 26.6377C43.7303 26.6958 43.7297 26.7816 43.6785 26.8368C42.7975 27.7831 41.0041 28.9779 38.6468 28.9779C34.4448 28.9779 32.344 26.4195 32.344 22.2377Z" fill="#8A8C8D"/>
<path fill-rule="evenodd" clip-rule="evenodd" d="M82.0721 22.4345C82.0721 17.4655 81.1305 16.5307 79.4881 16.5307C77.9666 16.5307 77.0733 17.6623 77.0733 21.8934C77.0733 26.9363 77.8701 28.0184 79.6329 28.0184C81.0822 28.0184 82.0721 27.1575 82.0721 22.4345ZM73.0163 22.3116C73.0163 17.5884 76.3004 15.5714 79.5607 15.5714C83.0623 15.5714 86.1293 17.7115 86.1293 22.1885C86.1293 26.9115 82.8932 28.9781 79.5607 28.9781C76.0591 28.9781 73.0163 26.813 73.0163 22.3116Z" fill="#8A8C8D"/>
<path fill-rule="evenodd" clip-rule="evenodd" d="M96.4762 22.4345C96.4762 17.4655 95.5345 16.5307 93.8922 16.5307C92.3707 16.5307 91.4773 17.6623 91.4773 21.8934C91.4773 26.9363 92.2744 28.0184 94.0372 28.0184C95.4863 28.0184 96.4762 27.1575 96.4762 22.4345ZM87.4202 22.3116C87.4202 17.5884 90.7044 15.5714 93.9646 15.5714C97.4662 15.5714 100.533 17.7115 100.533 22.1885C100.533 26.9115 97.2973 28.9781 93.9646 28.9781C90.4631 28.9781 87.4202 26.813 87.4202 22.3116Z" fill="#8A8C8D"/>
<path fill-rule="evenodd" clip-rule="evenodd" d="M54.0527 15.5714C52.2899 15.5714 50.696 16.3833 49.4162 17.3178H49.3195L49.367 15.7669C49.3707 15.648 49.2701 15.5536 49.1543 15.5669L45.7749 15.9571C45.6756 15.9684 45.6005 16.0539 45.6005 16.1558V28.4876C45.6005 28.5954 45.6862 28.6826 45.7918 28.6826H49.2487C49.3544 28.6826 49.4401 28.5954 49.4401 28.4876V18.1789C49.9713 18.0558 50.8408 17.8592 51.6862 17.8592C52.8211 17.8592 53.3525 18.3265 53.3525 19.827V28.4876C53.3525 28.5954 53.4383 28.6826 53.5439 28.6826H57.0249C57.1305 28.6826 57.2165 28.5954 57.2165 28.4876V18.8679C57.2165 16.6538 56.1056 15.5714 54.0527 15.5714Z" fill="#8A8C8D"/>
<path fill-rule="evenodd" clip-rule="evenodd" d="M67.5767 26.4933C67.1902 26.641 66.5381 27.0346 65.5481 27.0346C63.7127 27.0346 62.7468 25.7799 62.7468 21.9179C62.7468 17.859 63.9542 16.5553 65.6928 16.5553C66.5866 16.5553 67.1661 17.0718 67.5767 17.5884V26.4933ZM71.4163 13.1607C71.4163 11.8892 71.4588 10.7209 71.4813 10.2414C71.4878 10.1012 71.3708 9.98847 71.2337 10.0009L67.7556 10.4033C67.6542 10.4126 67.5767 10.499 67.5767 10.6028V14.0463C67.5767 14.9317 67.6249 15.8419 67.6249 15.8419C67.1178 15.6943 66.4416 15.5714 65.7897 15.5714C62.0223 15.5714 58.7861 17.6132 58.7861 22.7298C58.7861 27.2067 61.1286 28.9779 63.5195 28.9779C65.2099 28.9779 66.5623 28.2891 67.6008 27.3791H67.6973L67.6483 28.7368C67.6427 28.8815 67.7667 28.9958 67.9072 28.9756L71.2205 28.5988C71.3328 28.5829 71.4163 28.485 71.4163 28.3694V13.1607Z" fill="#8A8C8D"/>
<path fill-rule="evenodd" clip-rule="evenodd" d="M109.508 15.5714C108.107 15.5714 106.731 16.6538 105.982 17.4655H105.886L105.933 15.8125C105.937 15.6718 105.817 15.5599 105.68 15.5756L102.341 15.9573C102.242 15.9686 102.167 16.0541 102.167 16.1562V28.4511C102.167 28.579 102.268 28.6826 102.394 28.6826H105.779C105.904 28.6826 106.006 28.579 106.006 28.4511V18.4742C106.344 18.1543 106.9 17.8344 107.334 17.8344C107.552 17.8344 107.697 17.8837 107.842 18.1543C108.301 18.9168 108.664 19.3575 109.701 19.3575C110.643 19.3575 111.485 18.5971 111.485 17.4164C111.485 16.2108 110.667 15.5714 109.508 15.5714Z" fill="#8A8C8D"/>
<path fill-rule="evenodd" clip-rule="evenodd" d="M24.0418 27.9939C23.2206 27.9939 22.5687 27.6248 22.1338 27.1082V18.1542C22.5203 18.0067 23.1241 17.7114 24.09 17.7114C25.9254 17.7114 26.9639 18.9413 26.9639 22.459C26.9639 26.9608 25.9495 27.9939 24.0418 27.9939ZM26.191 15.5715C24.5004 15.5715 23.1484 16.3832 22.1338 17.2688H22.0132L22.0598 15.7968C22.064 15.6628 21.9504 15.556 21.8198 15.5711L18.4687 15.957C18.3692 15.9685 18.2942 16.0542 18.2942 16.1561V33.968C18.2942 34.0873 18.3961 34.1803 18.5127 34.1669L21.9595 33.7702C22.0588 33.7588 22.1338 33.6732 22.1338 33.5713V30.2325C22.1338 29.3716 22.1099 28.732 22.1099 28.732C22.6411 28.8795 23.4382 28.9778 23.9453 28.9778C27.9781 28.9778 30.9242 26.7394 30.9242 21.6227C30.9242 17.1211 28.4852 15.5715 26.191 15.5715Z" fill="#8A8C8D"/>
</g>
</g>
<defs>
<clipPath id="clip0_12243_1857">
<rect width="111.667" height="40" fill="white" transform="translate(0.166748)"/>
</clipPath>
</defs>
</svg>
