<svg width="138" height="40" viewBox="0 0 138 40" fill="none" xmlns="http://www.w3.org/2000/svg">
<g id="Company logo" clip-path="url(#clip0_12243_1850)">
<path id="Vector" d="M42.6068 25.0469C42.2109 25.1458 41.7161 25.2448 41.2214 25.2448C40.2318 25.2448 39.8359 24.651 39.8359 23.6615V19.2083H42.6068C43.2995 19.2083 43.9922 18.7135 43.9922 17.9219C43.9922 17.1302 43.3984 16.6354 42.6068 16.6354H39.8359V15.151C39.8359 14.2604 39.1432 13.6667 38.3516 13.6667C37.5599 13.6667 36.8672 14.3594 36.8672 15.151V23.7604C36.8672 26.2344 38.0547 28.0156 40.8255 28.0156C41.6172 28.0156 42.7057 27.9167 43.4974 27.5208C44.1901 27.224 44.388 26.7292 44.388 26.2344C44.388 25.5417 43.6953 24.849 42.6068 25.0469ZM52.5026 16.2396C52.1068 16.1406 51.3151 16.0417 50.6224 16.0417C48.1484 16.0417 46.763 17.526 46.763 19.8021V26.5312C46.763 27.3229 47.4557 28.0156 48.2474 28.0156C49.0391 28.0156 49.7318 27.3229 49.7318 26.5312V20.3958C49.7318 19.4062 50.1276 19.0104 50.8203 19.0104C51.513 19.0104 51.9089 19.2083 52.5026 19.2083C53.3932 19.2083 53.888 18.4167 53.888 17.8229C53.7891 17.0313 53.3932 16.5365 52.5026 16.2396ZM60.7161 16.0417C57.9453 16.0417 55.9661 17.8229 55.6693 20.6927C55.6693 21.3854 55.5703 22.5729 55.6693 23.4635C55.8672 26.2344 57.8464 28.1146 60.8151 28.1146C62.2005 28.1146 63.487 27.8177 64.2786 27.3229C64.8724 26.9271 64.9714 26.5313 64.9714 26.1354C64.9714 25.3438 64.2786 24.5521 63.0911 24.9479C62.3984 25.2448 61.6068 25.4427 60.8151 25.4427C59.4297 25.4427 58.3411 24.75 58.3411 23.3646V23.0677H63.9818C64.9714 23.0677 65.4661 22.474 65.4661 21.5833V21.0885C65.5651 18.0208 63.5859 16.0417 60.7161 16.0417ZM62.5964 21.0885H58.4401C58.4401 19.6042 59.1328 18.6146 60.7161 18.6146C62.1016 18.6146 62.8932 19.5052 62.7943 20.7917C62.7943 20.9896 62.7943 21.0885 62.5964 21.0885ZM72.5911 16.0417C69.8203 16.0417 67.8411 17.8229 67.5443 20.6927C67.5443 21.3854 67.4453 22.5729 67.5443 23.4635C67.7422 26.2344 69.7214 28.1146 72.6901 28.1146C74.0755 28.1146 75.362 27.8177 76.1536 27.3229C76.7474 26.9271 76.8464 26.5313 76.8464 26.1354C76.8464 25.3438 76.1536 24.5521 74.9661 24.9479C74.2734 25.2448 73.4818 25.4427 72.6901 25.4427C71.3047 25.4427 70.2161 24.75 70.2161 23.3646V23.0677H75.8568C76.8464 23.0677 77.3411 22.474 77.3411 21.5833V21.0885C77.4401 18.0208 75.4609 16.0417 72.5911 16.0417ZM74.4714 21.0885H70.3151C70.3151 19.6042 71.0078 18.6146 72.5911 18.6146C73.9766 18.6146 74.7682 19.5052 74.6693 20.7917C74.6693 20.9896 74.6693 21.0885 74.4714 21.0885ZM122.565 20.9896L120.982 20.5938C119.992 20.3958 119.695 20.099 119.695 19.6042C119.695 19.1094 120.19 18.7135 121.279 18.7135C121.872 18.7135 122.565 18.9115 123.159 19.2083C123.852 19.6042 124.643 19.5052 125.039 19.0104C125.534 18.5156 125.534 17.625 124.94 17.0312C124.148 16.4375 122.763 16.0417 121.378 16.0417C118.805 16.0417 116.924 17.3281 116.924 19.7031C116.924 21.5833 118.31 22.5729 120.091 23.0677C120.982 23.2656 120.883 23.2656 121.674 23.4635C122.565 23.6615 122.961 24.0573 122.961 24.4531C122.961 25.0469 122.466 25.4427 121.279 25.4427C120.289 25.4427 119.398 25.1458 118.706 24.75C118.013 24.2552 117.221 24.4531 116.826 25.0469C116.43 25.6406 116.529 26.4323 117.122 26.8281C117.914 27.5208 119.201 28.1146 121.279 28.1146C123.852 28.1146 125.831 26.7292 125.831 24.3542C125.831 22.5729 124.742 21.4844 122.565 20.9896ZM136.32 23.0677C137.31 23.0677 137.805 22.474 137.805 21.5833V21.0885C137.805 18.0208 135.826 16.0417 132.956 16.0417C130.185 16.0417 128.206 17.8229 127.909 20.6927C127.909 21.3854 127.81 22.5729 127.909 23.4635C128.107 26.2344 130.086 28.1146 133.055 28.1146C134.44 28.1146 135.727 27.8177 136.518 27.3229C137.112 26.9271 137.211 26.5313 137.211 26.1354C137.211 25.3438 136.518 24.5521 135.331 24.9479C134.638 25.2448 133.846 25.4427 133.055 25.4427C131.669 25.4427 130.581 24.75 130.581 23.3646V23.0677H136.32ZM132.956 18.6146C134.341 18.6146 135.133 19.5052 135.034 20.7917C135.034 20.9896 134.935 21.0885 134.836 21.0885H130.68C130.68 19.6042 131.471 18.6146 132.956 18.6146ZM96.737 16.0417C93.7682 16.0417 91.5911 17.9219 91.2943 20.4948C91.1953 21.3854 91.1953 22.7708 91.2943 23.6615C91.4922 26.2344 93.7682 28.1146 96.737 28.1146C99.7057 28.1146 101.883 26.2344 102.081 23.6615C102.18 22.7708 102.18 21.4844 102.081 20.5938C101.883 17.9219 99.7057 16.0417 96.737 16.0417ZM99.112 23.1667C99.013 24.4531 98.1224 25.2448 96.737 25.2448C95.3516 25.2448 94.4609 24.3542 94.362 23.1667C94.362 22.5729 94.362 21.5833 94.362 20.9896C94.4609 19.7031 95.3516 18.9115 96.737 18.9115C98.1224 18.9115 99.013 19.8021 99.112 20.9896C99.2109 21.5833 99.2109 22.5729 99.112 23.1667ZM84.9609 16.0417C83.8724 16.0417 82.6849 16.4375 82.2891 16.9323V13.7656C82.2891 12.875 81.6953 12.2812 80.9036 12.2812C80.112 12.2812 79.5182 12.974 79.5182 13.7656V26.5312C79.5182 27.3229 80.2109 28.0156 81.0026 28.0156C81.7943 28.0156 82.388 27.3229 82.388 26.5312V19.901C82.8828 19.4062 83.6745 19.0104 84.6641 19.0104C85.8516 19.0104 86.5443 19.7031 86.5443 21.0885V26.5312C86.5443 27.4219 87.138 28.1146 87.9297 28.1146C88.8203 28.1146 89.4141 27.4219 89.4141 26.5312V20.8906C89.3151 17.724 87.7318 16.0417 84.9609 16.0417ZM112.669 16.1406C111.878 16.1406 111.185 16.8333 111.185 17.625V24.651C110.69 24.9479 109.997 25.2448 109.107 25.2448C107.919 25.2448 107.029 24.5521 107.029 23.1667V17.625C107.029 16.7344 106.336 16.0417 105.544 16.0417C104.654 16.0417 104.159 16.7344 104.159 17.625V23.2656C104.159 26.3333 105.94 28.0156 109.008 28.0156C111.284 28.0156 112.867 27.224 113.56 26.7292C113.956 26.5312 114.055 26.2344 114.055 25.7396V17.625C114.055 16.8333 113.461 16.1406 112.669 16.1406Z" fill="#8A8C8D"/>
<path id="Vector_2" d="M25.9792 10.0053C24.8906 9.41152 23.2083 10.4011 22.2188 12.1824L20.3385 15.349C19.6458 16.6355 19.7448 18.2188 20.6354 19.5053L20.7344 19.6042C21.625 20.7917 22.7135 21.9792 23.1094 22.3751C23.3073 22.573 23.5052 22.8699 23.6042 23.2657C23.901 24.3542 23.3073 25.5417 22.1198 25.8386C21.0313 26.1355 19.8438 25.5417 19.5469 24.3542C19.4479 24.0574 19.4479 23.7605 19.4479 23.5626C19.5469 23.0678 19.349 22.3751 18.6563 21.5834C17.9635 20.8907 16.6771 22.2761 16.1823 23.6615V23.7605C15.7865 25.1459 15.4896 26.4324 15.5885 26.5313C15.5885 26.6303 15.6875 26.6303 15.6875 26.7292C16.2813 27.9167 15.8854 29.3021 14.6979 29.8959C13.5104 30.4896 12.125 30.0938 11.5312 28.9063C10.9375 27.7188 11.3333 26.3334 12.5208 25.7396C12.6198 25.7396 12.6198 25.6407 12.7188 25.6407C12.8177 25.6407 13.0156 25.0469 13.3125 24.2553C13.5104 23.5626 13.6094 23.2657 13.7083 22.9688C13.8073 22.573 14.0052 21.5834 13.9063 21.1876C13.8073 20.6928 13.3125 20.6928 12.8177 20.9896C12.5208 21.1876 11.9271 21.6824 11.7292 21.8803C11.2344 22.2761 10.8385 22.8699 10.6406 23.3646C10.5417 23.5626 10.3438 23.8594 10.1458 24.0574C9.25521 24.7501 7.96875 24.6511 7.17708 23.7605C6.48438 22.8699 6.58333 21.5834 7.47396 20.7917C7.77083 20.5938 8.06771 20.3959 8.36458 20.3959C8.85938 20.2969 10.6406 19.2084 11.7292 18.4167C11.9271 18.3178 12.224 18.0209 12.3229 17.9219C12.6198 17.5261 12.3229 17.2292 12.026 17.2292C11.1354 17.3282 10.1458 17.4271 9.94792 17.724C9.84896 17.823 9.75 18.0209 9.55208 18.1199C8.76042 18.7136 7.57292 18.5157 6.97917 17.724C6.38542 16.9324 6.58333 15.7449 7.375 15.1511C7.67188 14.8542 8.16667 14.7553 8.46354 14.7553C9.15625 14.7553 10.9375 15.1511 12.3229 14.8542L12.7188 14.7553C14.2031 14.4584 15.9844 13.1719 16.6771 11.8855C16.6771 11.8855 17.3698 10.698 18.1615 9.2136C19.0521 7.72923 18.9531 6.04694 18.0625 5.55214L16.3802 4.56256C15.4896 4.06777 14.2031 4.06777 13.3125 4.56256L1.83333 11.0938C0.942708 11.5886 0.25 12.7761 0.25 13.7657V26.4324C0.25 27.4219 0.942708 28.6094 1.83333 29.1042L13.3125 35.6355C14.2031 36.1303 15.5885 36.1303 16.3802 35.6355L27.8594 29.1042C28.75 28.6094 29.4427 27.4219 29.4427 26.4324V13.7657C29.4427 12.7761 28.75 11.5886 27.8594 11.0938C27.8594 11.0938 27.0677 10.599 25.9792 10.0053Z" fill="#8A8C8D"/>
</g>
<defs>
<clipPath id="clip0_12243_1850">
<rect width="137.5" height="40" fill="white" transform="translate(0.25)"/>
</clipPath>
</defs>
</svg>
